<svg width="516" height="53" viewBox="0 0 516 53" fill="none" xmlns="http://www.w3.org/2000/svg">
<rect width="132.05" height="52" transform="translate(0.474609 0.969727)" fill="#222222"/>
<path d="M60.26 25.1497C60.3133 25.0831 60.3867 24.9831 60.48 24.8497C60.5867 24.7164 60.6667 24.6164 60.72 24.5497C60.7867 24.4831 60.8467 24.4497 60.9 24.4497C61.0067 24.4497 61.3133 24.6564 61.82 25.0697C62.3267 25.4831 62.64 25.7897 62.76 25.9897C62.7733 26.0164 62.78 26.0497 62.78 26.0897C62.78 26.1831 62.7267 26.2631 62.62 26.3297C62.5267 26.3831 62.4067 26.4097 62.26 26.4097H57C56.8933 27.0364 56.7467 27.5897 56.56 28.0697C57.7867 28.3364 58.7867 28.6964 59.56 29.1497C60.3467 29.6031 60.9133 30.0831 61.26 30.5897C61.62 31.0831 61.8 31.5431 61.8 31.9697C61.8 32.2764 61.72 32.5297 61.56 32.7297C61.4 32.9164 61.1867 33.0097 60.92 33.0097C60.7733 33.0097 60.6067 32.9697 60.42 32.8897C60.34 32.8764 60.2933 32.8297 60.28 32.7497C59.9333 32.0564 59.4 31.3297 58.68 30.5697C57.96 29.7964 57.2 29.1097 56.4 28.5097C55.9867 29.4831 55.3333 30.3431 54.44 31.0897C53.5467 31.8231 52.3267 32.4631 50.78 33.0097H50.72C50.6533 33.0097 50.6 32.9897 50.56 32.9497L50.52 32.9097L50.48 32.8297C50.48 32.7764 50.5133 32.7297 50.58 32.6897C52.0733 31.8897 53.1533 30.9897 53.82 29.9897C54.4867 28.9897 54.9133 27.7964 55.1 26.4097H53.56C52.76 26.4231 51.86 26.5097 50.86 26.6697H50.8C50.7467 26.6697 50.7 26.6364 50.66 26.5697L50.3 25.8697C50.2867 25.8564 50.28 25.8297 50.28 25.7897C50.28 25.7231 50.3267 25.6897 50.42 25.6897C51.1533 25.7564 51.9667 25.8031 52.86 25.8297H55.16C55.2133 25.2697 55.2533 24.3831 55.28 23.1697V22.6297H53.76C52.9733 22.6431 52.0867 22.7297 51.1 22.8897H51.04C50.9867 22.8897 50.94 22.8564 50.9 22.7897L50.54 22.0897C50.5267 22.0764 50.52 22.0497 50.52 22.0097C50.52 21.9431 50.5667 21.9097 50.66 21.9097C51.3933 21.9764 52.2067 22.0231 53.1 22.0497H56.94L57.18 21.4697C57.4067 20.8697 57.6133 20.2031 57.8 19.4697C58 18.7364 58.14 18.0964 58.22 17.5497C58.2333 17.4297 58.3 17.3897 58.42 17.4297C60.02 18.0431 60.82 18.4364 60.82 18.6097C60.82 18.6497 60.76 18.6964 60.64 18.7497L60.26 18.8697C59.3 20.1897 58.38 21.2497 57.5 22.0497H59.58L60.06 21.3897C60.1267 21.3097 60.1933 21.2231 60.26 21.1297C60.34 21.0231 60.4133 20.9297 60.48 20.8497C60.56 20.7697 60.6267 20.7297 60.68 20.7297C60.8 20.7297 61.1067 20.9297 61.6 21.3297C62.0933 21.7297 62.3933 22.0231 62.5 22.2097C62.5133 22.2364 62.52 22.2697 62.52 22.3097C62.52 22.4031 62.4667 22.4831 62.36 22.5497C62.2667 22.6031 62.1533 22.6297 62.02 22.6297H57.28C57.2533 23.8431 57.1867 24.9097 57.08 25.8297H59.76L60.26 25.1497ZM52.26 17.9297C52.2067 17.8364 52.2067 17.7697 52.26 17.7297C52.3 17.6897 52.3667 17.6831 52.46 17.7097C53.4333 18.0297 54.1467 18.4364 54.6 18.9297C55.0667 19.4097 55.3 19.8964 55.3 20.3897C55.3 20.7231 55.2067 21.0031 55.02 21.2297C54.8333 21.4431 54.6 21.5497 54.32 21.5497C54.08 21.5497 53.8467 21.4631 53.62 21.2897C53.58 21.2497 53.5467 21.1831 53.52 21.0897C53.4667 20.5831 53.32 20.0431 53.08 19.4697C52.8533 18.8964 52.58 18.3831 52.26 17.9297ZM45.78 18.4697C45.7 18.3897 45.6867 18.3231 45.74 18.2697C45.8067 18.2297 45.8733 18.2164 45.94 18.2297C47.1667 18.5364 48.0733 18.9764 48.66 19.5497C49.2467 20.1097 49.54 20.6697 49.54 21.2297C49.54 21.5364 49.4533 21.7964 49.28 22.0097C49.1067 22.2097 48.8867 22.3097 48.62 22.3097C48.38 22.3097 48.16 22.2364 47.96 22.0897C47.9067 22.0631 47.8667 22.0097 47.84 21.9297C47.6933 21.3831 47.4267 20.7964 47.04 20.1697C46.6533 19.5297 46.2333 18.9631 45.78 18.4697ZM47.78 25.5897C47.8333 25.5231 47.9 25.4297 47.98 25.3097C48.0733 25.1897 48.1467 25.1031 48.2 25.0497C48.2533 24.9831 48.3067 24.9497 48.36 24.9497C48.48 24.9497 48.8 25.1697 49.32 25.6097C49.84 26.0364 50.16 26.3564 50.28 26.5697C50.32 26.6364 50.3067 26.7031 50.24 26.7697C50.0667 26.9297 49.7667 27.0364 49.34 27.0897V32.2297C49.7933 32.7097 50.2667 33.0697 50.76 33.3097C51.2667 33.5497 51.8667 33.7097 52.56 33.7897C53.2667 33.8697 54.2267 33.9097 55.44 33.9097C58.7733 33.9097 61.2067 33.8831 62.74 33.8297C62.8467 33.8297 62.9 33.8697 62.9 33.9497C62.9 34.0297 62.8533 34.0897 62.76 34.1297C62.16 34.3031 61.8 34.7764 61.68 35.5497C61.6533 35.6564 61.6 35.7097 61.52 35.7097H55.46C54.2067 35.7097 53.2067 35.6231 52.46 35.4497C51.7133 35.2897 51.0733 34.9831 50.54 34.5297C50.02 34.0897 49.54 33.4364 49.1 32.5697C48.74 33.0497 48.28 33.5897 47.72 34.1897C47.1733 34.7897 46.6867 35.2897 46.26 35.6897V35.7497C46.26 35.8697 46.2133 35.9764 46.12 36.0697C46.0933 36.0964 46.06 36.1097 46.02 36.1097C45.9667 36.1097 45.9267 36.0764 45.9 36.0097L45 34.1097C44.9867 34.0964 44.98 34.0697 44.98 34.0297C44.98 33.9631 45.0133 33.9164 45.08 33.8897C45.7333 33.6364 46.5867 33.2497 47.64 32.7297V26.8297H46.78C46.3267 26.8431 45.8667 26.9231 45.4 27.0697H45.36C45.2933 27.0697 45.24 27.0364 45.2 26.9697L44.9 26.2897L44.88 26.2097C44.88 26.1164 44.9267 26.0831 45.02 26.1097C45.3667 26.1631 45.88 26.2031 46.56 26.2297H47.36L47.78 25.5897ZM72.54 25.5697C71.86 26.5697 71.12 27.4497 70.32 28.2097C70.2533 28.2764 70.18 28.2831 70.1 28.2297C70.02 28.1497 70.0067 28.0764 70.06 28.0097C71.06 26.3031 71.9867 24.2097 72.84 21.7297C73.0533 21.0764 73.2467 20.3631 73.42 19.5897C73.6067 18.8031 73.72 18.1431 73.76 17.6097C73.7867 17.4897 73.8533 17.4497 73.96 17.4897C74.9067 17.7964 75.56 18.0297 75.92 18.1897C76.28 18.3497 76.46 18.4697 76.46 18.5497C76.46 18.6031 76.4067 18.6497 76.3 18.6897L75.94 18.8297C75.3933 20.3231 74.76 21.7564 74.04 23.1297C74.5733 23.5164 74.84 23.7831 74.84 23.9297C74.84 23.9697 74.82 24.0097 74.78 24.0497C74.7533 24.0764 74.7133 24.1031 74.66 24.1297L74.36 24.2697V30.7897C74.3867 32.4564 74.44 33.9831 74.52 35.3697C74.52 35.4497 74.4933 35.5164 74.44 35.5697C74.2933 35.7031 74.0667 35.8297 73.76 35.9497C73.4533 36.0831 73.16 36.1497 72.88 36.1497C72.72 36.1497 72.5867 36.1097 72.48 36.0297C72.3733 35.9497 72.32 35.8564 72.32 35.7497C72.3733 34.9631 72.42 34.2031 72.46 33.4697C72.5 32.7231 72.5267 31.7497 72.54 30.5497V25.5697ZM84.12 18.4097C84.1733 18.3297 84.2467 18.2231 84.34 18.0897C84.4333 17.9564 84.5067 17.8564 84.56 17.7897C84.6267 17.7231 84.6867 17.6897 84.74 17.6897C84.82 17.6897 85.0067 17.8097 85.3 18.0497C85.6067 18.2897 85.8933 18.5497 86.16 18.8297C86.4267 19.0964 86.56 19.2764 86.56 19.3697C86.5467 19.4764 86.4933 19.5564 86.4 19.6097C86.3067 19.6631 86.1933 19.6897 86.06 19.6897H80.74C79.8867 19.7031 78.9333 19.7897 77.88 19.9497H77.82C77.7667 19.9497 77.72 19.9164 77.68 19.8497L77.34 19.1497C77.3267 19.1364 77.32 19.1097 77.32 19.0697C77.32 19.0031 77.3667 18.9697 77.46 18.9697C78.1933 19.0364 79.0067 19.0831 79.9 19.1097H83.66L84.12 18.4097ZM79.2 22.4497C78.3467 22.4631 77.3933 22.5497 76.34 22.7097H76.28C76.2267 22.7097 76.18 22.6764 76.14 22.6097L75.8 21.9097C75.7867 21.8964 75.78 21.8697 75.78 21.8297C75.78 21.7631 75.8267 21.7297 75.92 21.7297C76.6533 21.7964 77.4667 21.8431 78.36 21.8697H85.24L85.74 21.1497C85.7933 21.0697 85.8667 20.9631 85.96 20.8297C86.0667 20.6831 86.1467 20.5764 86.2 20.5097C86.2667 20.4431 86.3267 20.4097 86.38 20.4097C86.4867 20.4097 86.7867 20.6297 87.28 21.0697C87.7867 21.5097 88.0933 21.8297 88.2 22.0297C88.24 22.0964 88.24 22.1564 88.2 22.2097C88.12 22.3697 87.96 22.4497 87.72 22.4497H79.2ZM80.32 25.1097C79.4933 25.1231 78.58 25.2097 77.58 25.3697H77.52C77.4667 25.3697 77.42 25.3364 77.38 25.2697L77.02 24.5697C77.0067 24.5564 77 24.5297 77 24.4897C77 24.4231 77.0467 24.3897 77.14 24.3897C77.8733 24.4564 78.6867 24.5031 79.58 24.5297H84.2L84.66 23.8497C84.7133 23.7831 84.78 23.6831 84.86 23.5497C84.9533 23.4164 85.0267 23.3164 85.08 23.2497C85.1467 23.1831 85.2067 23.1497 85.26 23.1497C85.34 23.1497 85.5267 23.2697 85.82 23.5097C86.1133 23.7364 86.3867 23.9831 86.64 24.2497C86.9067 24.5164 87.04 24.6964 87.04 24.7897C87.0267 24.8964 86.9733 24.9764 86.88 25.0297C86.7867 25.0831 86.6733 25.1097 86.54 25.1097H80.32ZM84.66 26.5297C84.7133 26.4631 84.78 26.3631 84.86 26.2297C84.9533 26.0964 85.0267 25.9964 85.08 25.9297C85.1467 25.8631 85.2067 25.8297 85.26 25.8297C85.34 25.8297 85.5267 25.9497 85.82 26.1897C86.1133 26.4164 86.3867 26.6631 86.64 26.9297C86.9067 27.1964 87.04 27.3764 87.04 27.4697C87.0267 27.5764 86.9733 27.6564 86.88 27.7097C86.7867 27.7631 86.6733 27.7897 86.54 27.7897H80.44C79.5867 27.8031 78.6333 27.8897 77.58 28.0497H77.52C77.4667 28.0497 77.42 28.0164 77.38 27.9497L77.02 27.2697C77.0067 27.2564 77 27.2297 77 27.1897C77 27.1231 77.0533 27.0897 77.16 27.0897C77.88 27.1564 78.6867 27.2031 79.58 27.2297H84.2L84.66 26.5297ZM78.98 35.4897C78.98 35.5964 78.8067 35.7164 78.46 35.8497C78.1267 35.9964 77.7867 36.0697 77.44 36.0697C77.32 36.0697 77.2267 36.0297 77.16 35.9497C77.0933 35.8697 77.06 35.7764 77.06 35.6697C77.1133 35.1497 77.1533 34.5031 77.18 33.7297V32.5497C77.18 31.2564 77.12 30.1297 77 29.1697V29.1297C77 29.0364 77.0533 29.0097 77.16 29.0497L79.08 29.8697H84.5L84.9 29.3697C84.9533 29.3164 85.0133 29.2431 85.08 29.1497C85.16 29.0431 85.2267 28.9697 85.28 28.9297C85.3333 28.8764 85.3867 28.8497 85.44 28.8497C85.56 28.8497 85.8533 29.0364 86.32 29.4097C86.8 29.7697 87.1 30.0497 87.22 30.2497C87.26 30.3031 87.2467 30.3631 87.18 30.4297C87.02 30.5897 86.8 30.6964 86.52 30.7497V32.3097C86.56 33.5897 86.6 34.5564 86.64 35.2097C86.64 35.2897 86.6133 35.3564 86.56 35.4097C86.4267 35.5431 86.1933 35.6697 85.86 35.7897C85.5267 35.9097 85.2333 35.9697 84.98 35.9697C84.7667 35.9697 84.6333 35.8697 84.58 35.6697C84.58 35.5897 84.5867 35.5231 84.6 35.4697C84.6133 35.4297 84.62 35.3764 84.62 35.3097C84.62 35.2564 84.6333 35.1831 84.66 35.0897V34.6297H78.98V35.4897ZM78.98 30.4297V34.0497H84.66V30.4297H78.98Z" fill="white"/>
<g clip-path="url(#clip0_88_218)">
<rect x="132.375" y="0.969727" width="383.15" height="52" fill="white"/>
<path d="M166.612 27.2147C166.882 27.3747 167.017 27.5547 167.017 27.7547C167.017 27.8847 166.967 28.0097 166.867 28.1297C166.767 28.2497 166.642 28.3097 166.492 28.3097C166.302 28.3097 166.107 28.2397 165.907 28.0997C165.717 27.9497 165.457 27.7147 165.127 27.3947C164.717 26.9847 164.392 26.7097 164.152 26.5697V26.5997C164.152 26.8597 164.222 27.2497 164.362 27.7697C164.512 28.2797 164.587 28.6947 164.587 29.0147C164.587 29.2147 164.537 29.3797 164.437 29.5097C164.347 29.6397 164.212 29.7047 164.032 29.7047C163.862 29.7047 163.727 29.6397 163.627 29.5097C163.527 29.3797 163.477 29.2147 163.477 29.0147C163.477 28.6947 163.552 28.2797 163.702 27.7697C163.842 27.2497 163.912 26.8597 163.912 26.5997V26.5697C163.672 26.7097 163.347 26.9847 162.937 27.3947C162.627 27.6947 162.372 27.9197 162.172 28.0697C161.972 28.2197 161.777 28.2947 161.587 28.2947C161.437 28.2947 161.312 28.2347 161.212 28.1147C161.112 27.9947 161.062 27.8697 161.062 27.7397C161.062 27.5397 161.197 27.3597 161.467 27.1997C161.677 27.0797 161.912 26.9797 162.172 26.8997C162.432 26.8197 162.587 26.7747 162.637 26.7647C162.837 26.7147 163.037 26.6597 163.237 26.5997C163.447 26.5297 163.627 26.4497 163.777 26.3597C163.557 26.2397 163.187 26.1097 162.667 25.9697C162.617 25.9597 162.457 25.9147 162.187 25.8347C161.917 25.7547 161.677 25.6547 161.467 25.5347C161.197 25.3747 161.062 25.1947 161.062 24.9947C161.062 24.8647 161.112 24.7397 161.212 24.6197C161.312 24.4997 161.437 24.4397 161.587 24.4397C161.777 24.4397 161.967 24.5147 162.157 24.6647C162.357 24.8047 162.622 25.0347 162.952 25.3547C163.362 25.7647 163.687 26.0397 163.927 26.1797V26.1197C163.927 25.8597 163.857 25.4697 163.717 24.9497C163.567 24.4397 163.492 24.0247 163.492 23.7047C163.492 23.5047 163.542 23.3397 163.642 23.2097C163.742 23.0797 163.877 23.0147 164.047 23.0147C164.227 23.0147 164.362 23.0797 164.452 23.2097C164.552 23.3397 164.602 23.5047 164.602 23.7047C164.602 24.0247 164.527 24.4397 164.377 24.9497C164.237 25.4697 164.167 25.8597 164.167 26.1197V26.1497C164.407 26.0097 164.732 25.7347 165.142 25.3247C165.452 25.0247 165.707 24.7997 165.907 24.6497C166.107 24.4997 166.302 24.4247 166.492 24.4247C166.642 24.4247 166.767 24.4847 166.867 24.6047C166.967 24.7247 167.017 24.8497 167.017 24.9797C167.017 25.1797 166.882 25.3597 166.612 25.5197C166.332 25.6797 165.927 25.8247 165.397 25.9547C165.197 26.0047 164.997 26.0647 164.797 26.1347C164.597 26.1947 164.422 26.2697 164.272 26.3597C164.532 26.5097 164.917 26.6497 165.427 26.7797C165.957 26.9197 166.352 27.0647 166.612 27.2147ZM182.233 27.2147C182.503 27.3747 182.638 27.5547 182.638 27.7547C182.638 27.8847 182.588 28.0097 182.488 28.1297C182.388 28.2497 182.263 28.3097 182.113 28.3097C181.923 28.3097 181.728 28.2397 181.528 28.0997C181.338 27.9497 181.078 27.7147 180.748 27.3947C180.338 26.9847 180.013 26.7097 179.773 26.5697V26.5997C179.773 26.8597 179.843 27.2497 179.983 27.7697C180.133 28.2797 180.208 28.6947 180.208 29.0147C180.208 29.2147 180.158 29.3797 180.058 29.5097C179.968 29.6397 179.833 29.7047 179.653 29.7047C179.483 29.7047 179.348 29.6397 179.248 29.5097C179.148 29.3797 179.098 29.2147 179.098 29.0147C179.098 28.6947 179.173 28.2797 179.323 27.7697C179.463 27.2497 179.533 26.8597 179.533 26.5997V26.5697C179.293 26.7097 178.968 26.9847 178.558 27.3947C178.248 27.6947 177.993 27.9197 177.793 28.0697C177.593 28.2197 177.398 28.2947 177.208 28.2947C177.058 28.2947 176.933 28.2347 176.833 28.1147C176.733 27.9947 176.683 27.8697 176.683 27.7397C176.683 27.5397 176.818 27.3597 177.088 27.1997C177.298 27.0797 177.533 26.9797 177.793 26.8997C178.053 26.8197 178.208 26.7747 178.258 26.7647C178.458 26.7147 178.658 26.6597 178.858 26.5997C179.068 26.5297 179.248 26.4497 179.398 26.3597C179.178 26.2397 178.808 26.1097 178.288 25.9697C178.238 25.9597 178.078 25.9147 177.808 25.8347C177.538 25.7547 177.298 25.6547 177.088 25.5347C176.818 25.3747 176.683 25.1947 176.683 24.9947C176.683 24.8647 176.733 24.7397 176.833 24.6197C176.933 24.4997 177.058 24.4397 177.208 24.4397C177.398 24.4397 177.588 24.5147 177.778 24.6647C177.978 24.8047 178.243 25.0347 178.573 25.3547C178.983 25.7647 179.308 26.0397 179.548 26.1797V26.1197C179.548 25.8597 179.478 25.4697 179.338 24.9497C179.188 24.4397 179.113 24.0247 179.113 23.7047C179.113 23.5047 179.163 23.3397 179.263 23.2097C179.363 23.0797 179.498 23.0147 179.668 23.0147C179.848 23.0147 179.983 23.0797 180.073 23.2097C180.173 23.3397 180.223 23.5047 180.223 23.7047C180.223 24.0247 180.148 24.4397 179.998 24.9497C179.858 25.4697 179.788 25.8597 179.788 26.1197V26.1497C180.028 26.0097 180.353 25.7347 180.763 25.3247C181.073 25.0247 181.328 24.7997 181.528 24.6497C181.728 24.4997 181.923 24.4247 182.113 24.4247C182.263 24.4247 182.388 24.4847 182.488 24.6047C182.588 24.7247 182.638 24.8497 182.638 24.9797C182.638 25.1797 182.503 25.3597 182.233 25.5197C181.953 25.6797 181.548 25.8247 181.018 25.9547C180.818 26.0047 180.618 26.0647 180.418 26.1347C180.218 26.1947 180.043 26.2697 179.893 26.3597C180.153 26.5097 180.538 26.6497 181.048 26.7797C181.578 26.9197 181.973 27.0647 182.233 27.2147ZM197.854 27.2147C198.124 27.3747 198.259 27.5547 198.259 27.7547C198.259 27.8847 198.209 28.0097 198.109 28.1297C198.009 28.2497 197.884 28.3097 197.734 28.3097C197.544 28.3097 197.349 28.2397 197.149 28.0997C196.959 27.9497 196.699 27.7147 196.369 27.3947C195.959 26.9847 195.634 26.7097 195.394 26.5697V26.5997C195.394 26.8597 195.464 27.2497 195.604 27.7697C195.754 28.2797 195.829 28.6947 195.829 29.0147C195.829 29.2147 195.779 29.3797 195.679 29.5097C195.589 29.6397 195.454 29.7047 195.274 29.7047C195.104 29.7047 194.969 29.6397 194.869 29.5097C194.769 29.3797 194.719 29.2147 194.719 29.0147C194.719 28.6947 194.794 28.2797 194.944 27.7697C195.084 27.2497 195.154 26.8597 195.154 26.5997V26.5697C194.914 26.7097 194.589 26.9847 194.179 27.3947C193.869 27.6947 193.614 27.9197 193.414 28.0697C193.214 28.2197 193.019 28.2947 192.829 28.2947C192.679 28.2947 192.554 28.2347 192.454 28.1147C192.354 27.9947 192.304 27.8697 192.304 27.7397C192.304 27.5397 192.439 27.3597 192.709 27.1997C192.919 27.0797 193.154 26.9797 193.414 26.8997C193.674 26.8197 193.829 26.7747 193.879 26.7647C194.079 26.7147 194.279 26.6597 194.479 26.5997C194.689 26.5297 194.869 26.4497 195.019 26.3597C194.799 26.2397 194.429 26.1097 193.909 25.9697C193.859 25.9597 193.699 25.9147 193.429 25.8347C193.159 25.7547 192.919 25.6547 192.709 25.5347C192.439 25.3747 192.304 25.1947 192.304 24.9947C192.304 24.8647 192.354 24.7397 192.454 24.6197C192.554 24.4997 192.679 24.4397 192.829 24.4397C193.019 24.4397 193.209 24.5147 193.399 24.6647C193.599 24.8047 193.864 25.0347 194.194 25.3547C194.604 25.7647 194.929 26.0397 195.169 26.1797V26.1197C195.169 25.8597 195.099 25.4697 194.959 24.9497C194.809 24.4397 194.734 24.0247 194.734 23.7047C194.734 23.5047 194.784 23.3397 194.884 23.2097C194.984 23.0797 195.119 23.0147 195.289 23.0147C195.469 23.0147 195.604 23.0797 195.694 23.2097C195.794 23.3397 195.844 23.5047 195.844 23.7047C195.844 24.0247 195.769 24.4397 195.619 24.9497C195.479 25.4697 195.409 25.8597 195.409 26.1197V26.1497C195.649 26.0097 195.974 25.7347 196.384 25.3247C196.694 25.0247 196.949 24.7997 197.149 24.6497C197.349 24.4997 197.544 24.4247 197.734 24.4247C197.884 24.4247 198.009 24.4847 198.109 24.6047C198.209 24.7247 198.259 24.8497 198.259 24.9797C198.259 25.1797 198.124 25.3597 197.854 25.5197C197.574 25.6797 197.169 25.8247 196.639 25.9547C196.439 26.0047 196.239 26.0647 196.039 26.1347C195.839 26.1947 195.664 26.2697 195.514 26.3597C195.774 26.5097 196.159 26.6497 196.669 26.7797C197.199 26.9197 197.594 27.0647 197.854 27.2147ZM213.475 27.2147C213.745 27.3747 213.88 27.5547 213.88 27.7547C213.88 27.8847 213.83 28.0097 213.73 28.1297C213.63 28.2497 213.505 28.3097 213.355 28.3097C213.165 28.3097 212.97 28.2397 212.77 28.0997C212.58 27.9497 212.32 27.7147 211.99 27.3947C211.58 26.9847 211.255 26.7097 211.015 26.5697V26.5997C211.015 26.8597 211.085 27.2497 211.225 27.7697C211.375 28.2797 211.45 28.6947 211.45 29.0147C211.45 29.2147 211.4 29.3797 211.3 29.5097C211.21 29.6397 211.075 29.7047 210.895 29.7047C210.725 29.7047 210.59 29.6397 210.49 29.5097C210.39 29.3797 210.34 29.2147 210.34 29.0147C210.34 28.6947 210.415 28.2797 210.565 27.7697C210.705 27.2497 210.775 26.8597 210.775 26.5997V26.5697C210.535 26.7097 210.21 26.9847 209.8 27.3947C209.49 27.6947 209.235 27.9197 209.035 28.0697C208.835 28.2197 208.64 28.2947 208.45 28.2947C208.3 28.2947 208.175 28.2347 208.075 28.1147C207.975 27.9947 207.925 27.8697 207.925 27.7397C207.925 27.5397 208.06 27.3597 208.33 27.1997C208.54 27.0797 208.775 26.9797 209.035 26.8997C209.295 26.8197 209.45 26.7747 209.5 26.7647C209.7 26.7147 209.9 26.6597 210.1 26.5997C210.31 26.5297 210.49 26.4497 210.64 26.3597C210.42 26.2397 210.05 26.1097 209.53 25.9697C209.48 25.9597 209.32 25.9147 209.05 25.8347C208.78 25.7547 208.54 25.6547 208.33 25.5347C208.06 25.3747 207.925 25.1947 207.925 24.9947C207.925 24.8647 207.975 24.7397 208.075 24.6197C208.175 24.4997 208.3 24.4397 208.45 24.4397C208.64 24.4397 208.83 24.5147 209.02 24.6647C209.22 24.8047 209.485 25.0347 209.815 25.3547C210.225 25.7647 210.55 26.0397 210.79 26.1797V26.1197C210.79 25.8597 210.72 25.4697 210.58 24.9497C210.43 24.4397 210.355 24.0247 210.355 23.7047C210.355 23.5047 210.405 23.3397 210.505 23.2097C210.605 23.0797 210.74 23.0147 210.91 23.0147C211.09 23.0147 211.225 23.0797 211.315 23.2097C211.415 23.3397 211.465 23.5047 211.465 23.7047C211.465 24.0247 211.39 24.4397 211.24 24.9497C211.1 25.4697 211.03 25.8597 211.03 26.1197V26.1497C211.27 26.0097 211.595 25.7347 212.005 25.3247C212.315 25.0247 212.57 24.7997 212.77 24.6497C212.97 24.4997 213.165 24.4247 213.355 24.4247C213.505 24.4247 213.63 24.4847 213.73 24.6047C213.83 24.7247 213.88 24.8497 213.88 24.9797C213.88 25.1797 213.745 25.3597 213.475 25.5197C213.195 25.6797 212.79 25.8247 212.26 25.9547C212.06 26.0047 211.86 26.0647 211.66 26.1347C211.46 26.1947 211.285 26.2697 211.135 26.3597C211.395 26.5097 211.78 26.6497 212.29 26.7797C212.82 26.9197 213.215 27.0647 213.475 27.2147ZM229.096 27.2147C229.366 27.3747 229.501 27.5547 229.501 27.7547C229.501 27.8847 229.451 28.0097 229.351 28.1297C229.251 28.2497 229.126 28.3097 228.976 28.3097C228.786 28.3097 228.591 28.2397 228.391 28.0997C228.201 27.9497 227.941 27.7147 227.611 27.3947C227.201 26.9847 226.876 26.7097 226.636 26.5697V26.5997C226.636 26.8597 226.706 27.2497 226.846 27.7697C226.996 28.2797 227.071 28.6947 227.071 29.0147C227.071 29.2147 227.021 29.3797 226.921 29.5097C226.831 29.6397 226.696 29.7047 226.516 29.7047C226.346 29.7047 226.211 29.6397 226.111 29.5097C226.011 29.3797 225.961 29.2147 225.961 29.0147C225.961 28.6947 226.036 28.2797 226.186 27.7697C226.326 27.2497 226.396 26.8597 226.396 26.5997V26.5697C226.156 26.7097 225.831 26.9847 225.421 27.3947C225.111 27.6947 224.856 27.9197 224.656 28.0697C224.456 28.2197 224.261 28.2947 224.071 28.2947C223.921 28.2947 223.796 28.2347 223.696 28.1147C223.596 27.9947 223.546 27.8697 223.546 27.7397C223.546 27.5397 223.681 27.3597 223.951 27.1997C224.161 27.0797 224.396 26.9797 224.656 26.8997C224.916 26.8197 225.071 26.7747 225.121 26.7647C225.321 26.7147 225.521 26.6597 225.721 26.5997C225.931 26.5297 226.111 26.4497 226.261 26.3597C226.041 26.2397 225.671 26.1097 225.151 25.9697C225.101 25.9597 224.941 25.9147 224.671 25.8347C224.401 25.7547 224.161 25.6547 223.951 25.5347C223.681 25.3747 223.546 25.1947 223.546 24.9947C223.546 24.8647 223.596 24.7397 223.696 24.6197C223.796 24.4997 223.921 24.4397 224.071 24.4397C224.261 24.4397 224.451 24.5147 224.641 24.6647C224.841 24.8047 225.106 25.0347 225.436 25.3547C225.846 25.7647 226.171 26.0397 226.411 26.1797V26.1197C226.411 25.8597 226.341 25.4697 226.201 24.9497C226.051 24.4397 225.976 24.0247 225.976 23.7047C225.976 23.5047 226.026 23.3397 226.126 23.2097C226.226 23.0797 226.361 23.0147 226.531 23.0147C226.711 23.0147 226.846 23.0797 226.936 23.2097C227.036 23.3397 227.086 23.5047 227.086 23.7047C227.086 24.0247 227.011 24.4397 226.861 24.9497C226.721 25.4697 226.651 25.8597 226.651 26.1197V26.1497C226.891 26.0097 227.216 25.7347 227.626 25.3247C227.936 25.0247 228.191 24.7997 228.391 24.6497C228.591 24.4997 228.786 24.4247 228.976 24.4247C229.126 24.4247 229.251 24.4847 229.351 24.6047C229.451 24.7247 229.501 24.8497 229.501 24.9797C229.501 25.1797 229.366 25.3597 229.096 25.5197C228.816 25.6797 228.411 25.8247 227.881 25.9547C227.681 26.0047 227.481 26.0647 227.281 26.1347C227.081 26.1947 226.906 26.2697 226.756 26.3597C227.016 26.5097 227.401 26.6497 227.911 26.7797C228.441 26.9197 228.836 27.0647 229.096 27.2147ZM244.717 27.2147C244.987 27.3747 245.122 27.5547 245.122 27.7547C245.122 27.8847 245.072 28.0097 244.972 28.1297C244.872 28.2497 244.747 28.3097 244.597 28.3097C244.407 28.3097 244.212 28.2397 244.012 28.0997C243.822 27.9497 243.562 27.7147 243.232 27.3947C242.822 26.9847 242.497 26.7097 242.257 26.5697V26.5997C242.257 26.8597 242.327 27.2497 242.467 27.7697C242.617 28.2797 242.692 28.6947 242.692 29.0147C242.692 29.2147 242.642 29.3797 242.542 29.5097C242.452 29.6397 242.317 29.7047 242.137 29.7047C241.967 29.7047 241.832 29.6397 241.732 29.5097C241.632 29.3797 241.582 29.2147 241.582 29.0147C241.582 28.6947 241.657 28.2797 241.807 27.7697C241.947 27.2497 242.017 26.8597 242.017 26.5997V26.5697C241.777 26.7097 241.452 26.9847 241.042 27.3947C240.732 27.6947 240.477 27.9197 240.277 28.0697C240.077 28.2197 239.882 28.2947 239.692 28.2947C239.542 28.2947 239.417 28.2347 239.317 28.1147C239.217 27.9947 239.167 27.8697 239.167 27.7397C239.167 27.5397 239.302 27.3597 239.572 27.1997C239.782 27.0797 240.017 26.9797 240.277 26.8997C240.537 26.8197 240.692 26.7747 240.742 26.7647C240.942 26.7147 241.142 26.6597 241.342 26.5997C241.552 26.5297 241.732 26.4497 241.882 26.3597C241.662 26.2397 241.292 26.1097 240.772 25.9697C240.722 25.9597 240.562 25.9147 240.292 25.8347C240.022 25.7547 239.782 25.6547 239.572 25.5347C239.302 25.3747 239.167 25.1947 239.167 24.9947C239.167 24.8647 239.217 24.7397 239.317 24.6197C239.417 24.4997 239.542 24.4397 239.692 24.4397C239.882 24.4397 240.072 24.5147 240.262 24.6647C240.462 24.8047 240.727 25.0347 241.057 25.3547C241.467 25.7647 241.792 26.0397 242.032 26.1797V26.1197C242.032 25.8597 241.962 25.4697 241.822 24.9497C241.672 24.4397 241.597 24.0247 241.597 23.7047C241.597 23.5047 241.647 23.3397 241.747 23.2097C241.847 23.0797 241.982 23.0147 242.152 23.0147C242.332 23.0147 242.467 23.0797 242.557 23.2097C242.657 23.3397 242.707 23.5047 242.707 23.7047C242.707 24.0247 242.632 24.4397 242.482 24.9497C242.342 25.4697 242.272 25.8597 242.272 26.1197V26.1497C242.512 26.0097 242.837 25.7347 243.247 25.3247C243.557 25.0247 243.812 24.7997 244.012 24.6497C244.212 24.4997 244.407 24.4247 244.597 24.4247C244.747 24.4247 244.872 24.4847 244.972 24.6047C245.072 24.7247 245.122 24.8497 245.122 24.9797C245.122 25.1797 244.987 25.3597 244.717 25.5197C244.437 25.6797 244.032 25.8247 243.502 25.9547C243.302 26.0047 243.102 26.0647 242.902 26.1347C242.702 26.1947 242.527 26.2697 242.377 26.3597C242.637 26.5097 243.022 26.6497 243.532 26.7797C244.062 26.9197 244.457 27.0647 244.717 27.2147ZM260.338 27.2147C260.608 27.3747 260.743 27.5547 260.743 27.7547C260.743 27.8847 260.693 28.0097 260.593 28.1297C260.493 28.2497 260.368 28.3097 260.218 28.3097C260.028 28.3097 259.833 28.2397 259.633 28.0997C259.443 27.9497 259.183 27.7147 258.853 27.3947C258.443 26.9847 258.118 26.7097 257.878 26.5697V26.5997C257.878 26.8597 257.948 27.2497 258.088 27.7697C258.238 28.2797 258.313 28.6947 258.313 29.0147C258.313 29.2147 258.263 29.3797 258.163 29.5097C258.073 29.6397 257.938 29.7047 257.758 29.7047C257.588 29.7047 257.453 29.6397 257.353 29.5097C257.253 29.3797 257.203 29.2147 257.203 29.0147C257.203 28.6947 257.278 28.2797 257.428 27.7697C257.568 27.2497 257.638 26.8597 257.638 26.5997V26.5697C257.398 26.7097 257.073 26.9847 256.663 27.3947C256.353 27.6947 256.098 27.9197 255.898 28.0697C255.698 28.2197 255.503 28.2947 255.313 28.2947C255.163 28.2947 255.038 28.2347 254.938 28.1147C254.838 27.9947 254.788 27.8697 254.788 27.7397C254.788 27.5397 254.923 27.3597 255.193 27.1997C255.403 27.0797 255.638 26.9797 255.898 26.8997C256.158 26.8197 256.313 26.7747 256.363 26.7647C256.563 26.7147 256.763 26.6597 256.963 26.5997C257.173 26.5297 257.353 26.4497 257.503 26.3597C257.283 26.2397 256.913 26.1097 256.393 25.9697C256.343 25.9597 256.183 25.9147 255.913 25.8347C255.643 25.7547 255.403 25.6547 255.193 25.5347C254.923 25.3747 254.788 25.1947 254.788 24.9947C254.788 24.8647 254.838 24.7397 254.938 24.6197C255.038 24.4997 255.163 24.4397 255.313 24.4397C255.503 24.4397 255.693 24.5147 255.883 24.6647C256.083 24.8047 256.348 25.0347 256.678 25.3547C257.088 25.7647 257.413 26.0397 257.653 26.1797V26.1197C257.653 25.8597 257.583 25.4697 257.443 24.9497C257.293 24.4397 257.218 24.0247 257.218 23.7047C257.218 23.5047 257.268 23.3397 257.368 23.2097C257.468 23.0797 257.603 23.0147 257.773 23.0147C257.953 23.0147 258.088 23.0797 258.178 23.2097C258.278 23.3397 258.328 23.5047 258.328 23.7047C258.328 24.0247 258.253 24.4397 258.103 24.9497C257.963 25.4697 257.893 25.8597 257.893 26.1197V26.1497C258.133 26.0097 258.458 25.7347 258.868 25.3247C259.178 25.0247 259.433 24.7997 259.633 24.6497C259.833 24.4997 260.028 24.4247 260.218 24.4247C260.368 24.4247 260.493 24.4847 260.593 24.6047C260.693 24.7247 260.743 24.8497 260.743 24.9797C260.743 25.1797 260.608 25.3597 260.338 25.5197C260.058 25.6797 259.653 25.8247 259.123 25.9547C258.923 26.0047 258.723 26.0647 258.523 26.1347C258.323 26.1947 258.148 26.2697 257.998 26.3597C258.258 26.5097 258.643 26.6497 259.153 26.7797C259.683 26.9197 260.078 27.0647 260.338 27.2147ZM275.959 27.2147C276.229 27.3747 276.364 27.5547 276.364 27.7547C276.364 27.8847 276.314 28.0097 276.214 28.1297C276.114 28.2497 275.989 28.3097 275.839 28.3097C275.649 28.3097 275.454 28.2397 275.254 28.0997C275.064 27.9497 274.804 27.7147 274.474 27.3947C274.064 26.9847 273.739 26.7097 273.499 26.5697V26.5997C273.499 26.8597 273.569 27.2497 273.709 27.7697C273.859 28.2797 273.934 28.6947 273.934 29.0147C273.934 29.2147 273.884 29.3797 273.784 29.5097C273.694 29.6397 273.559 29.7047 273.379 29.7047C273.209 29.7047 273.074 29.6397 272.974 29.5097C272.874 29.3797 272.824 29.2147 272.824 29.0147C272.824 28.6947 272.899 28.2797 273.049 27.7697C273.189 27.2497 273.259 26.8597 273.259 26.5997V26.5697C273.019 26.7097 272.694 26.9847 272.284 27.3947C271.974 27.6947 271.719 27.9197 271.519 28.0697C271.319 28.2197 271.124 28.2947 270.934 28.2947C270.784 28.2947 270.659 28.2347 270.559 28.1147C270.459 27.9947 270.409 27.8697 270.409 27.7397C270.409 27.5397 270.544 27.3597 270.814 27.1997C271.024 27.0797 271.259 26.9797 271.519 26.8997C271.779 26.8197 271.934 26.7747 271.984 26.7647C272.184 26.7147 272.384 26.6597 272.584 26.5997C272.794 26.5297 272.974 26.4497 273.124 26.3597C272.904 26.2397 272.534 26.1097 272.014 25.9697C271.964 25.9597 271.804 25.9147 271.534 25.8347C271.264 25.7547 271.024 25.6547 270.814 25.5347C270.544 25.3747 270.409 25.1947 270.409 24.9947C270.409 24.8647 270.459 24.7397 270.559 24.6197C270.659 24.4997 270.784 24.4397 270.934 24.4397C271.124 24.4397 271.314 24.5147 271.504 24.6647C271.704 24.8047 271.969 25.0347 272.299 25.3547C272.709 25.7647 273.034 26.0397 273.274 26.1797V26.1197C273.274 25.8597 273.204 25.4697 273.064 24.9497C272.914 24.4397 272.839 24.0247 272.839 23.7047C272.839 23.5047 272.889 23.3397 272.989 23.2097C273.089 23.0797 273.224 23.0147 273.394 23.0147C273.574 23.0147 273.709 23.0797 273.799 23.2097C273.899 23.3397 273.949 23.5047 273.949 23.7047C273.949 24.0247 273.874 24.4397 273.724 24.9497C273.584 25.4697 273.514 25.8597 273.514 26.1197V26.1497C273.754 26.0097 274.079 25.7347 274.489 25.3247C274.799 25.0247 275.054 24.7997 275.254 24.6497C275.454 24.4997 275.649 24.4247 275.839 24.4247C275.989 24.4247 276.114 24.4847 276.214 24.6047C276.314 24.7247 276.364 24.8497 276.364 24.9797C276.364 25.1797 276.229 25.3597 275.959 25.5197C275.679 25.6797 275.274 25.8247 274.744 25.9547C274.544 26.0047 274.344 26.0647 274.144 26.1347C273.944 26.1947 273.769 26.2697 273.619 26.3597C273.879 26.5097 274.264 26.6497 274.774 26.7797C275.304 26.9197 275.699 27.0647 275.959 27.2147ZM291.581 27.2147C291.851 27.3747 291.986 27.5547 291.986 27.7547C291.986 27.8847 291.936 28.0097 291.836 28.1297C291.736 28.2497 291.611 28.3097 291.461 28.3097C291.271 28.3097 291.076 28.2397 290.876 28.0997C290.686 27.9497 290.426 27.7147 290.096 27.3947C289.686 26.9847 289.361 26.7097 289.121 26.5697V26.5997C289.121 26.8597 289.191 27.2497 289.331 27.7697C289.481 28.2797 289.556 28.6947 289.556 29.0147C289.556 29.2147 289.506 29.3797 289.406 29.5097C289.316 29.6397 289.181 29.7047 289.001 29.7047C288.831 29.7047 288.696 29.6397 288.596 29.5097C288.496 29.3797 288.446 29.2147 288.446 29.0147C288.446 28.6947 288.521 28.2797 288.671 27.7697C288.811 27.2497 288.881 26.8597 288.881 26.5997V26.5697C288.641 26.7097 288.316 26.9847 287.906 27.3947C287.596 27.6947 287.341 27.9197 287.141 28.0697C286.941 28.2197 286.746 28.2947 286.556 28.2947C286.406 28.2947 286.281 28.2347 286.181 28.1147C286.081 27.9947 286.031 27.8697 286.031 27.7397C286.031 27.5397 286.166 27.3597 286.436 27.1997C286.646 27.0797 286.881 26.9797 287.141 26.8997C287.401 26.8197 287.556 26.7747 287.606 26.7647C287.806 26.7147 288.006 26.6597 288.206 26.5997C288.416 26.5297 288.596 26.4497 288.746 26.3597C288.526 26.2397 288.156 26.1097 287.636 25.9697C287.586 25.9597 287.426 25.9147 287.156 25.8347C286.886 25.7547 286.646 25.6547 286.436 25.5347C286.166 25.3747 286.031 25.1947 286.031 24.9947C286.031 24.8647 286.081 24.7397 286.181 24.6197C286.281 24.4997 286.406 24.4397 286.556 24.4397C286.746 24.4397 286.936 24.5147 287.126 24.6647C287.326 24.8047 287.591 25.0347 287.921 25.3547C288.331 25.7647 288.656 26.0397 288.896 26.1797V26.1197C288.896 25.8597 288.826 25.4697 288.686 24.9497C288.536 24.4397 288.461 24.0247 288.461 23.7047C288.461 23.5047 288.511 23.3397 288.611 23.2097C288.711 23.0797 288.846 23.0147 289.016 23.0147C289.196 23.0147 289.331 23.0797 289.421 23.2097C289.521 23.3397 289.571 23.5047 289.571 23.7047C289.571 24.0247 289.496 24.4397 289.346 24.9497C289.206 25.4697 289.136 25.8597 289.136 26.1197V26.1497C289.376 26.0097 289.701 25.7347 290.111 25.3247C290.421 25.0247 290.676 24.7997 290.876 24.6497C291.076 24.4997 291.271 24.4247 291.461 24.4247C291.611 24.4247 291.736 24.4847 291.836 24.6047C291.936 24.7247 291.986 24.8497 291.986 24.9797C291.986 25.1797 291.851 25.3597 291.581 25.5197C291.301 25.6797 290.896 25.8247 290.366 25.9547C290.166 26.0047 289.966 26.0647 289.766 26.1347C289.566 26.1947 289.391 26.2697 289.241 26.3597C289.501 26.5097 289.886 26.6497 290.396 26.7797C290.926 26.9197 291.321 27.0647 291.581 27.2147ZM307.202 27.2147C307.472 27.3747 307.607 27.5547 307.607 27.7547C307.607 27.8847 307.557 28.0097 307.457 28.1297C307.357 28.2497 307.232 28.3097 307.082 28.3097C306.892 28.3097 306.697 28.2397 306.497 28.0997C306.307 27.9497 306.047 27.7147 305.717 27.3947C305.307 26.9847 304.982 26.7097 304.742 26.5697V26.5997C304.742 26.8597 304.812 27.2497 304.952 27.7697C305.102 28.2797 305.177 28.6947 305.177 29.0147C305.177 29.2147 305.127 29.3797 305.027 29.5097C304.937 29.6397 304.802 29.7047 304.622 29.7047C304.452 29.7047 304.317 29.6397 304.217 29.5097C304.117 29.3797 304.067 29.2147 304.067 29.0147C304.067 28.6947 304.142 28.2797 304.292 27.7697C304.432 27.2497 304.502 26.8597 304.502 26.5997V26.5697C304.262 26.7097 303.937 26.9847 303.527 27.3947C303.217 27.6947 302.962 27.9197 302.762 28.0697C302.562 28.2197 302.367 28.2947 302.177 28.2947C302.027 28.2947 301.902 28.2347 301.802 28.1147C301.702 27.9947 301.652 27.8697 301.652 27.7397C301.652 27.5397 301.787 27.3597 302.057 27.1997C302.267 27.0797 302.502 26.9797 302.762 26.8997C303.022 26.8197 303.177 26.7747 303.227 26.7647C303.427 26.7147 303.627 26.6597 303.827 26.5997C304.037 26.5297 304.217 26.4497 304.367 26.3597C304.147 26.2397 303.777 26.1097 303.257 25.9697C303.207 25.9597 303.047 25.9147 302.777 25.8347C302.507 25.7547 302.267 25.6547 302.057 25.5347C301.787 25.3747 301.652 25.1947 301.652 24.9947C301.652 24.8647 301.702 24.7397 301.802 24.6197C301.902 24.4997 302.027 24.4397 302.177 24.4397C302.367 24.4397 302.557 24.5147 302.747 24.6647C302.947 24.8047 303.212 25.0347 303.542 25.3547C303.952 25.7647 304.277 26.0397 304.517 26.1797V26.1197C304.517 25.8597 304.447 25.4697 304.307 24.9497C304.157 24.4397 304.082 24.0247 304.082 23.7047C304.082 23.5047 304.132 23.3397 304.232 23.2097C304.332 23.0797 304.467 23.0147 304.637 23.0147C304.817 23.0147 304.952 23.0797 305.042 23.2097C305.142 23.3397 305.192 23.5047 305.192 23.7047C305.192 24.0247 305.117 24.4397 304.967 24.9497C304.827 25.4697 304.757 25.8597 304.757 26.1197V26.1497C304.997 26.0097 305.322 25.7347 305.732 25.3247C306.042 25.0247 306.297 24.7997 306.497 24.6497C306.697 24.4997 306.892 24.4247 307.082 24.4247C307.232 24.4247 307.357 24.4847 307.457 24.6047C307.557 24.7247 307.607 24.8497 307.607 24.9797C307.607 25.1797 307.472 25.3597 307.202 25.5197C306.922 25.6797 306.517 25.8247 305.987 25.9547C305.787 26.0047 305.587 26.0647 305.387 26.1347C305.187 26.1947 305.012 26.2697 304.862 26.3597C305.122 26.5097 305.507 26.6497 306.017 26.7797C306.547 26.9197 306.942 27.0647 307.202 27.2147ZM322.823 27.2147C323.093 27.3747 323.228 27.5547 323.228 27.7547C323.228 27.8847 323.178 28.0097 323.078 28.1297C322.978 28.2497 322.853 28.3097 322.703 28.3097C322.513 28.3097 322.318 28.2397 322.118 28.0997C321.928 27.9497 321.668 27.7147 321.338 27.3947C320.928 26.9847 320.603 26.7097 320.363 26.5697V26.5997C320.363 26.8597 320.433 27.2497 320.573 27.7697C320.723 28.2797 320.798 28.6947 320.798 29.0147C320.798 29.2147 320.748 29.3797 320.648 29.5097C320.558 29.6397 320.423 29.7047 320.243 29.7047C320.073 29.7047 319.938 29.6397 319.838 29.5097C319.738 29.3797 319.688 29.2147 319.688 29.0147C319.688 28.6947 319.763 28.2797 319.913 27.7697C320.053 27.2497 320.123 26.8597 320.123 26.5997V26.5697C319.883 26.7097 319.558 26.9847 319.148 27.3947C318.838 27.6947 318.583 27.9197 318.383 28.0697C318.183 28.2197 317.988 28.2947 317.798 28.2947C317.648 28.2947 317.523 28.2347 317.423 28.1147C317.323 27.9947 317.273 27.8697 317.273 27.7397C317.273 27.5397 317.408 27.3597 317.678 27.1997C317.888 27.0797 318.123 26.9797 318.383 26.8997C318.643 26.8197 318.798 26.7747 318.848 26.7647C319.048 26.7147 319.248 26.6597 319.448 26.5997C319.658 26.5297 319.838 26.4497 319.988 26.3597C319.768 26.2397 319.398 26.1097 318.878 25.9697C318.828 25.9597 318.668 25.9147 318.398 25.8347C318.128 25.7547 317.888 25.6547 317.678 25.5347C317.408 25.3747 317.273 25.1947 317.273 24.9947C317.273 24.8647 317.323 24.7397 317.423 24.6197C317.523 24.4997 317.648 24.4397 317.798 24.4397C317.988 24.4397 318.178 24.5147 318.368 24.6647C318.568 24.8047 318.833 25.0347 319.163 25.3547C319.573 25.7647 319.898 26.0397 320.138 26.1797V26.1197C320.138 25.8597 320.068 25.4697 319.928 24.9497C319.778 24.4397 319.703 24.0247 319.703 23.7047C319.703 23.5047 319.753 23.3397 319.853 23.2097C319.953 23.0797 320.088 23.0147 320.258 23.0147C320.438 23.0147 320.573 23.0797 320.663 23.2097C320.763 23.3397 320.813 23.5047 320.813 23.7047C320.813 24.0247 320.738 24.4397 320.588 24.9497C320.448 25.4697 320.378 25.8597 320.378 26.1197V26.1497C320.618 26.0097 320.943 25.7347 321.353 25.3247C321.663 25.0247 321.918 24.7997 322.118 24.6497C322.318 24.4997 322.513 24.4247 322.703 24.4247C322.853 24.4247 322.978 24.4847 323.078 24.6047C323.178 24.7247 323.228 24.8497 323.228 24.9797C323.228 25.1797 323.093 25.3597 322.823 25.5197C322.543 25.6797 322.138 25.8247 321.608 25.9547C321.408 26.0047 321.208 26.0647 321.008 26.1347C320.808 26.1947 320.633 26.2697 320.483 26.3597C320.743 26.5097 321.128 26.6497 321.638 26.7797C322.168 26.9197 322.563 27.0647 322.823 27.2147ZM338.444 27.2147C338.714 27.3747 338.849 27.5547 338.849 27.7547C338.849 27.8847 338.799 28.0097 338.699 28.1297C338.599 28.2497 338.474 28.3097 338.324 28.3097C338.134 28.3097 337.939 28.2397 337.739 28.0997C337.549 27.9497 337.289 27.7147 336.959 27.3947C336.549 26.9847 336.224 26.7097 335.984 26.5697V26.5997C335.984 26.8597 336.054 27.2497 336.194 27.7697C336.344 28.2797 336.419 28.6947 336.419 29.0147C336.419 29.2147 336.369 29.3797 336.269 29.5097C336.179 29.6397 336.044 29.7047 335.864 29.7047C335.694 29.7047 335.559 29.6397 335.459 29.5097C335.359 29.3797 335.309 29.2147 335.309 29.0147C335.309 28.6947 335.384 28.2797 335.534 27.7697C335.674 27.2497 335.744 26.8597 335.744 26.5997V26.5697C335.504 26.7097 335.179 26.9847 334.769 27.3947C334.459 27.6947 334.204 27.9197 334.004 28.0697C333.804 28.2197 333.609 28.2947 333.419 28.2947C333.269 28.2947 333.144 28.2347 333.044 28.1147C332.944 27.9947 332.894 27.8697 332.894 27.7397C332.894 27.5397 333.029 27.3597 333.299 27.1997C333.509 27.0797 333.744 26.9797 334.004 26.8997C334.264 26.8197 334.419 26.7747 334.469 26.7647C334.669 26.7147 334.869 26.6597 335.069 26.5997C335.279 26.5297 335.459 26.4497 335.609 26.3597C335.389 26.2397 335.019 26.1097 334.499 25.9697C334.449 25.9597 334.289 25.9147 334.019 25.8347C333.749 25.7547 333.509 25.6547 333.299 25.5347C333.029 25.3747 332.894 25.1947 332.894 24.9947C332.894 24.8647 332.944 24.7397 333.044 24.6197C333.144 24.4997 333.269 24.4397 333.419 24.4397C333.609 24.4397 333.799 24.5147 333.989 24.6647C334.189 24.8047 334.454 25.0347 334.784 25.3547C335.194 25.7647 335.519 26.0397 335.759 26.1797V26.1197C335.759 25.8597 335.689 25.4697 335.549 24.9497C335.399 24.4397 335.324 24.0247 335.324 23.7047C335.324 23.5047 335.374 23.3397 335.474 23.2097C335.574 23.0797 335.709 23.0147 335.879 23.0147C336.059 23.0147 336.194 23.0797 336.284 23.2097C336.384 23.3397 336.434 23.5047 336.434 23.7047C336.434 24.0247 336.359 24.4397 336.209 24.9497C336.069 25.4697 335.999 25.8597 335.999 26.1197V26.1497C336.239 26.0097 336.564 25.7347 336.974 25.3247C337.284 25.0247 337.539 24.7997 337.739 24.6497C337.939 24.4997 338.134 24.4247 338.324 24.4247C338.474 24.4247 338.599 24.4847 338.699 24.6047C338.799 24.7247 338.849 24.8497 338.849 24.9797C338.849 25.1797 338.714 25.3597 338.444 25.5197C338.164 25.6797 337.759 25.8247 337.229 25.9547C337.029 26.0047 336.829 26.0647 336.629 26.1347C336.429 26.1947 336.254 26.2697 336.104 26.3597C336.364 26.5097 336.749 26.6497 337.259 26.7797C337.789 26.9197 338.184 27.0647 338.444 27.2147ZM354.065 27.2147C354.335 27.3747 354.47 27.5547 354.47 27.7547C354.47 27.8847 354.42 28.0097 354.32 28.1297C354.22 28.2497 354.095 28.3097 353.945 28.3097C353.755 28.3097 353.56 28.2397 353.36 28.0997C353.17 27.9497 352.91 27.7147 352.58 27.3947C352.17 26.9847 351.845 26.7097 351.605 26.5697V26.5997C351.605 26.8597 351.675 27.2497 351.815 27.7697C351.965 28.2797 352.04 28.6947 352.04 29.0147C352.04 29.2147 351.99 29.3797 351.89 29.5097C351.8 29.6397 351.665 29.7047 351.485 29.7047C351.315 29.7047 351.18 29.6397 351.08 29.5097C350.98 29.3797 350.93 29.2147 350.93 29.0147C350.93 28.6947 351.005 28.2797 351.155 27.7697C351.295 27.2497 351.365 26.8597 351.365 26.5997V26.5697C351.125 26.7097 350.8 26.9847 350.39 27.3947C350.08 27.6947 349.825 27.9197 349.625 28.0697C349.425 28.2197 349.23 28.2947 349.04 28.2947C348.89 28.2947 348.765 28.2347 348.665 28.1147C348.565 27.9947 348.515 27.8697 348.515 27.7397C348.515 27.5397 348.65 27.3597 348.92 27.1997C349.13 27.0797 349.365 26.9797 349.625 26.8997C349.885 26.8197 350.04 26.7747 350.09 26.7647C350.29 26.7147 350.49 26.6597 350.69 26.5997C350.9 26.5297 351.08 26.4497 351.23 26.3597C351.01 26.2397 350.64 26.1097 350.12 25.9697C350.07 25.9597 349.91 25.9147 349.64 25.8347C349.37 25.7547 349.13 25.6547 348.92 25.5347C348.65 25.3747 348.515 25.1947 348.515 24.9947C348.515 24.8647 348.565 24.7397 348.665 24.6197C348.765 24.4997 348.89 24.4397 349.04 24.4397C349.23 24.4397 349.42 24.5147 349.61 24.6647C349.81 24.8047 350.075 25.0347 350.405 25.3547C350.815 25.7647 351.14 26.0397 351.38 26.1797V26.1197C351.38 25.8597 351.31 25.4697 351.17 24.9497C351.02 24.4397 350.945 24.0247 350.945 23.7047C350.945 23.5047 350.995 23.3397 351.095 23.2097C351.195 23.0797 351.33 23.0147 351.5 23.0147C351.68 23.0147 351.815 23.0797 351.905 23.2097C352.005 23.3397 352.055 23.5047 352.055 23.7047C352.055 24.0247 351.98 24.4397 351.83 24.9497C351.69 25.4697 351.62 25.8597 351.62 26.1197V26.1497C351.86 26.0097 352.185 25.7347 352.595 25.3247C352.905 25.0247 353.16 24.7997 353.36 24.6497C353.56 24.4997 353.755 24.4247 353.945 24.4247C354.095 24.4247 354.22 24.4847 354.32 24.6047C354.42 24.7247 354.47 24.8497 354.47 24.9797C354.47 25.1797 354.335 25.3597 354.065 25.5197C353.785 25.6797 353.38 25.8247 352.85 25.9547C352.65 26.0047 352.45 26.0647 352.25 26.1347C352.05 26.1947 351.875 26.2697 351.725 26.3597C351.985 26.5097 352.37 26.6497 352.88 26.7797C353.41 26.9197 353.805 27.0647 354.065 27.2147ZM369.686 27.2147C369.956 27.3747 370.091 27.5547 370.091 27.7547C370.091 27.8847 370.041 28.0097 369.941 28.1297C369.841 28.2497 369.716 28.3097 369.566 28.3097C369.376 28.3097 369.181 28.2397 368.981 28.0997C368.791 27.9497 368.531 27.7147 368.201 27.3947C367.791 26.9847 367.466 26.7097 367.226 26.5697V26.5997C367.226 26.8597 367.296 27.2497 367.436 27.7697C367.586 28.2797 367.661 28.6947 367.661 29.0147C367.661 29.2147 367.611 29.3797 367.511 29.5097C367.421 29.6397 367.286 29.7047 367.106 29.7047C366.936 29.7047 366.801 29.6397 366.701 29.5097C366.601 29.3797 366.551 29.2147 366.551 29.0147C366.551 28.6947 366.626 28.2797 366.776 27.7697C366.916 27.2497 366.986 26.8597 366.986 26.5997V26.5697C366.746 26.7097 366.421 26.9847 366.011 27.3947C365.701 27.6947 365.446 27.9197 365.246 28.0697C365.046 28.2197 364.851 28.2947 364.661 28.2947C364.511 28.2947 364.386 28.2347 364.286 28.1147C364.186 27.9947 364.136 27.8697 364.136 27.7397C364.136 27.5397 364.271 27.3597 364.541 27.1997C364.751 27.0797 364.986 26.9797 365.246 26.8997C365.506 26.8197 365.661 26.7747 365.711 26.7647C365.911 26.7147 366.111 26.6597 366.311 26.5997C366.521 26.5297 366.701 26.4497 366.851 26.3597C366.631 26.2397 366.261 26.1097 365.741 25.9697C365.691 25.9597 365.531 25.9147 365.261 25.8347C364.991 25.7547 364.751 25.6547 364.541 25.5347C364.271 25.3747 364.136 25.1947 364.136 24.9947C364.136 24.8647 364.186 24.7397 364.286 24.6197C364.386 24.4997 364.511 24.4397 364.661 24.4397C364.851 24.4397 365.041 24.5147 365.231 24.6647C365.431 24.8047 365.696 25.0347 366.026 25.3547C366.436 25.7647 366.761 26.0397 367.001 26.1797V26.1197C367.001 25.8597 366.931 25.4697 366.791 24.9497C366.641 24.4397 366.566 24.0247 366.566 23.7047C366.566 23.5047 366.616 23.3397 366.716 23.2097C366.816 23.0797 366.951 23.0147 367.121 23.0147C367.301 23.0147 367.436 23.0797 367.526 23.2097C367.626 23.3397 367.676 23.5047 367.676 23.7047C367.676 24.0247 367.601 24.4397 367.451 24.9497C367.311 25.4697 367.241 25.8597 367.241 26.1197V26.1497C367.481 26.0097 367.806 25.7347 368.216 25.3247C368.526 25.0247 368.781 24.7997 368.981 24.6497C369.181 24.4997 369.376 24.4247 369.566 24.4247C369.716 24.4247 369.841 24.4847 369.941 24.6047C370.041 24.7247 370.091 24.8497 370.091 24.9797C370.091 25.1797 369.956 25.3597 369.686 25.5197C369.406 25.6797 369.001 25.8247 368.471 25.9547C368.271 26.0047 368.071 26.0647 367.871 26.1347C367.671 26.1947 367.496 26.2697 367.346 26.3597C367.606 26.5097 367.991 26.6497 368.501 26.7797C369.031 26.9197 369.426 27.0647 369.686 27.2147ZM385.307 27.2147C385.577 27.3747 385.712 27.5547 385.712 27.7547C385.712 27.8847 385.662 28.0097 385.562 28.1297C385.462 28.2497 385.337 28.3097 385.187 28.3097C384.997 28.3097 384.802 28.2397 384.602 28.0997C384.412 27.9497 384.152 27.7147 383.822 27.3947C383.412 26.9847 383.087 26.7097 382.847 26.5697V26.5997C382.847 26.8597 382.917 27.2497 383.057 27.7697C383.207 28.2797 383.282 28.6947 383.282 29.0147C383.282 29.2147 383.232 29.3797 383.132 29.5097C383.042 29.6397 382.907 29.7047 382.727 29.7047C382.557 29.7047 382.422 29.6397 382.322 29.5097C382.222 29.3797 382.172 29.2147 382.172 29.0147C382.172 28.6947 382.247 28.2797 382.397 27.7697C382.537 27.2497 382.607 26.8597 382.607 26.5997V26.5697C382.367 26.7097 382.042 26.9847 381.632 27.3947C381.322 27.6947 381.067 27.9197 380.867 28.0697C380.667 28.2197 380.472 28.2947 380.282 28.2947C380.132 28.2947 380.007 28.2347 379.907 28.1147C379.807 27.9947 379.757 27.8697 379.757 27.7397C379.757 27.5397 379.892 27.3597 380.162 27.1997C380.372 27.0797 380.607 26.9797 380.867 26.8997C381.127 26.8197 381.282 26.7747 381.332 26.7647C381.532 26.7147 381.732 26.6597 381.932 26.5997C382.142 26.5297 382.322 26.4497 382.472 26.3597C382.252 26.2397 381.882 26.1097 381.362 25.9697C381.312 25.9597 381.152 25.9147 380.882 25.8347C380.612 25.7547 380.372 25.6547 380.162 25.5347C379.892 25.3747 379.757 25.1947 379.757 24.9947C379.757 24.8647 379.807 24.7397 379.907 24.6197C380.007 24.4997 380.132 24.4397 380.282 24.4397C380.472 24.4397 380.662 24.5147 380.852 24.6647C381.052 24.8047 381.317 25.0347 381.647 25.3547C382.057 25.7647 382.382 26.0397 382.622 26.1797V26.1197C382.622 25.8597 382.552 25.4697 382.412 24.9497C382.262 24.4397 382.187 24.0247 382.187 23.7047C382.187 23.5047 382.237 23.3397 382.337 23.2097C382.437 23.0797 382.572 23.0147 382.742 23.0147C382.922 23.0147 383.057 23.0797 383.147 23.2097C383.247 23.3397 383.297 23.5047 383.297 23.7047C383.297 24.0247 383.222 24.4397 383.072 24.9497C382.932 25.4697 382.862 25.8597 382.862 26.1197V26.1497C383.102 26.0097 383.427 25.7347 383.837 25.3247C384.147 25.0247 384.402 24.7997 384.602 24.6497C384.802 24.4997 384.997 24.4247 385.187 24.4247C385.337 24.4247 385.462 24.4847 385.562 24.6047C385.662 24.7247 385.712 24.8497 385.712 24.9797C385.712 25.1797 385.577 25.3597 385.307 25.5197C385.027 25.6797 384.622 25.8247 384.092 25.9547C383.892 26.0047 383.692 26.0647 383.492 26.1347C383.292 26.1947 383.117 26.2697 382.967 26.3597C383.227 26.5097 383.612 26.6497 384.122 26.7797C384.652 26.9197 385.047 27.0647 385.307 27.2147Z" fill="#222222"/>
</g>
<rect x="132.875" y="1.46973" width="382.15" height="51" stroke="black"/>
<defs>
<clipPath id="clip0_88_218">
<rect x="132.375" y="0.969727" width="383.15" height="52" fill="white"/>
</clipPath>
</defs>
</svg>
