<svg width="536" height="478" viewBox="0 0 536 478" fill="none" xmlns="http://www.w3.org/2000/svg">
<rect width="132.05" height="52" transform="translate(10.4746 10.9697)" fill="#222222"/>
<path d="M70.26 35.1497C70.3133 35.0831 70.3867 34.9831 70.48 34.8497C70.5867 34.7164 70.6667 34.6164 70.72 34.5497C70.7867 34.4831 70.8467 34.4497 70.9 34.4497C71.0067 34.4497 71.3133 34.6564 71.82 35.0697C72.3267 35.4831 72.64 35.7897 72.76 35.9897C72.7733 36.0164 72.78 36.0497 72.78 36.0897C72.78 36.1831 72.7267 36.2631 72.62 36.3297C72.5267 36.3831 72.4067 36.4097 72.26 36.4097H67C66.8933 37.0364 66.7467 37.5897 66.56 38.0697C67.7867 38.3364 68.7867 38.6964 69.56 39.1497C70.3467 39.6031 70.9133 40.0831 71.26 40.5897C71.62 41.0831 71.8 41.5431 71.8 41.9697C71.8 42.2764 71.72 42.5297 71.56 42.7297C71.4 42.9164 71.1867 43.0097 70.92 43.0097C70.7733 43.0097 70.6067 42.9697 70.42 42.8897C70.34 42.8764 70.2933 42.8297 70.28 42.7497C69.9333 42.0564 69.4 41.3297 68.68 40.5697C67.96 39.7964 67.2 39.1097 66.4 38.5097C65.9867 39.4831 65.3333 40.3431 64.44 41.0897C63.5467 41.8231 62.3267 42.4631 60.78 43.0097H60.72C60.6533 43.0097 60.6 42.9897 60.56 42.9497L60.52 42.9097L60.48 42.8297C60.48 42.7764 60.5133 42.7297 60.58 42.6897C62.0733 41.8897 63.1533 40.9897 63.82 39.9897C64.4867 38.9897 64.9133 37.7964 65.1 36.4097H63.56C62.76 36.4231 61.86 36.5097 60.86 36.6697H60.8C60.7467 36.6697 60.7 36.6364 60.66 36.5697L60.3 35.8697C60.2867 35.8564 60.28 35.8297 60.28 35.7897C60.28 35.7231 60.3267 35.6897 60.42 35.6897C61.1533 35.7564 61.9667 35.8031 62.86 35.8297H65.16C65.2133 35.2697 65.2533 34.3831 65.28 33.1697V32.6297H63.76C62.9733 32.6431 62.0867 32.7297 61.1 32.8897H61.04C60.9867 32.8897 60.94 32.8564 60.9 32.7897L60.54 32.0897C60.5267 32.0764 60.52 32.0497 60.52 32.0097C60.52 31.9431 60.5667 31.9097 60.66 31.9097C61.3933 31.9764 62.2067 32.0231 63.1 32.0497H66.94L67.18 31.4697C67.4067 30.8697 67.6133 30.2031 67.8 29.4697C68 28.7364 68.14 28.0964 68.22 27.5497C68.2333 27.4297 68.3 27.3897 68.42 27.4297C70.02 28.0431 70.82 28.4364 70.82 28.6097C70.82 28.6497 70.76 28.6964 70.64 28.7497L70.26 28.8697C69.3 30.1897 68.38 31.2497 67.5 32.0497H69.58L70.06 31.3897C70.1267 31.3097 70.1933 31.2231 70.26 31.1297C70.34 31.0231 70.4133 30.9297 70.48 30.8497C70.56 30.7697 70.6267 30.7297 70.68 30.7297C70.8 30.7297 71.1067 30.9297 71.6 31.3297C72.0933 31.7297 72.3933 32.0231 72.5 32.2097C72.5133 32.2364 72.52 32.2697 72.52 32.3097C72.52 32.4031 72.4667 32.4831 72.36 32.5497C72.2667 32.6031 72.1533 32.6297 72.02 32.6297H67.28C67.2533 33.8431 67.1867 34.9097 67.08 35.8297H69.76L70.26 35.1497ZM62.26 27.9297C62.2067 27.8364 62.2067 27.7697 62.26 27.7297C62.3 27.6897 62.3667 27.6831 62.46 27.7097C63.4333 28.0297 64.1467 28.4364 64.6 28.9297C65.0667 29.4097 65.3 29.8964 65.3 30.3897C65.3 30.7231 65.2067 31.0031 65.02 31.2297C64.8333 31.4431 64.6 31.5497 64.32 31.5497C64.08 31.5497 63.8467 31.4631 63.62 31.2897C63.58 31.2497 63.5467 31.1831 63.52 31.0897C63.4667 30.5831 63.32 30.0431 63.08 29.4697C62.8533 28.8964 62.58 28.3831 62.26 27.9297ZM55.78 28.4697C55.7 28.3897 55.6867 28.3231 55.74 28.2697C55.8067 28.2297 55.8733 28.2164 55.94 28.2297C57.1667 28.5364 58.0733 28.9764 58.66 29.5497C59.2467 30.1097 59.54 30.6697 59.54 31.2297C59.54 31.5364 59.4533 31.7964 59.28 32.0097C59.1067 32.2097 58.8867 32.3097 58.62 32.3097C58.38 32.3097 58.16 32.2364 57.96 32.0897C57.9067 32.0631 57.8667 32.0097 57.84 31.9297C57.6933 31.3831 57.4267 30.7964 57.04 30.1697C56.6533 29.5297 56.2333 28.9631 55.78 28.4697ZM57.78 35.5897C57.8333 35.5231 57.9 35.4297 57.98 35.3097C58.0733 35.1897 58.1467 35.1031 58.2 35.0497C58.2533 34.9831 58.3067 34.9497 58.36 34.9497C58.48 34.9497 58.8 35.1697 59.32 35.6097C59.84 36.0364 60.16 36.3564 60.28 36.5697C60.32 36.6364 60.3067 36.7031 60.24 36.7697C60.0667 36.9297 59.7667 37.0364 59.34 37.0897V42.2297C59.7933 42.7097 60.2667 43.0697 60.76 43.3097C61.2667 43.5497 61.8667 43.7097 62.56 43.7897C63.2667 43.8697 64.2267 43.9097 65.44 43.9097C68.7733 43.9097 71.2067 43.8831 72.74 43.8297C72.8467 43.8297 72.9 43.8697 72.9 43.9497C72.9 44.0297 72.8533 44.0897 72.76 44.1297C72.16 44.3031 71.8 44.7764 71.68 45.5497C71.6533 45.6564 71.6 45.7097 71.52 45.7097H65.46C64.2067 45.7097 63.2067 45.6231 62.46 45.4497C61.7133 45.2897 61.0733 44.9831 60.54 44.5297C60.02 44.0897 59.54 43.4364 59.1 42.5697C58.74 43.0497 58.28 43.5897 57.72 44.1897C57.1733 44.7897 56.6867 45.2897 56.26 45.6897V45.7497C56.26 45.8697 56.2133 45.9764 56.12 46.0697C56.0933 46.0964 56.06 46.1097 56.02 46.1097C55.9667 46.1097 55.9267 46.0764 55.9 46.0097L55 44.1097C54.9867 44.0964 54.98 44.0697 54.98 44.0297C54.98 43.9631 55.0133 43.9164 55.08 43.8897C55.7333 43.6364 56.5867 43.2497 57.64 42.7297V36.8297H56.78C56.3267 36.8431 55.8667 36.9231 55.4 37.0697H55.36C55.2933 37.0697 55.24 37.0364 55.2 36.9697L54.9 36.2897L54.88 36.2097C54.88 36.1164 54.9267 36.0831 55.02 36.1097C55.3667 36.1631 55.88 36.2031 56.56 36.2297H57.36L57.78 35.5897ZM82.54 35.5697C81.86 36.5697 81.12 37.4497 80.32 38.2097C80.2533 38.2764 80.18 38.2831 80.1 38.2297C80.02 38.1497 80.0067 38.0764 80.06 38.0097C81.06 36.3031 81.9867 34.2097 82.84 31.7297C83.0533 31.0764 83.2467 30.3631 83.42 29.5897C83.6067 28.8031 83.72 28.1431 83.76 27.6097C83.7867 27.4897 83.8533 27.4497 83.96 27.4897C84.9067 27.7964 85.56 28.0297 85.92 28.1897C86.28 28.3497 86.46 28.4697 86.46 28.5497C86.46 28.6031 86.4067 28.6497 86.3 28.6897L85.94 28.8297C85.3933 30.3231 84.76 31.7564 84.04 33.1297C84.5733 33.5164 84.84 33.7831 84.84 33.9297C84.84 33.9697 84.82 34.0097 84.78 34.0497C84.7533 34.0764 84.7133 34.1031 84.66 34.1297L84.36 34.2697V40.7897C84.3867 42.4564 84.44 43.9831 84.52 45.3697C84.52 45.4497 84.4933 45.5164 84.44 45.5697C84.2933 45.7031 84.0667 45.8297 83.76 45.9497C83.4533 46.0831 83.16 46.1497 82.88 46.1497C82.72 46.1497 82.5867 46.1097 82.48 46.0297C82.3733 45.9497 82.32 45.8564 82.32 45.7497C82.3733 44.9631 82.42 44.2031 82.46 43.4697C82.5 42.7231 82.5267 41.7497 82.54 40.5497V35.5697ZM94.12 28.4097C94.1733 28.3297 94.2467 28.2231 94.34 28.0897C94.4333 27.9564 94.5067 27.8564 94.56 27.7897C94.6267 27.7231 94.6867 27.6897 94.74 27.6897C94.82 27.6897 95.0067 27.8097 95.3 28.0497C95.6067 28.2897 95.8933 28.5497 96.16 28.8297C96.4267 29.0964 96.56 29.2764 96.56 29.3697C96.5467 29.4764 96.4933 29.5564 96.4 29.6097C96.3067 29.6631 96.1933 29.6897 96.06 29.6897H90.74C89.8867 29.7031 88.9333 29.7897 87.88 29.9497H87.82C87.7667 29.9497 87.72 29.9164 87.68 29.8497L87.34 29.1497C87.3267 29.1364 87.32 29.1097 87.32 29.0697C87.32 29.0031 87.3667 28.9697 87.46 28.9697C88.1933 29.0364 89.0067 29.0831 89.9 29.1097H93.66L94.12 28.4097ZM89.2 32.4497C88.3467 32.4631 87.3933 32.5497 86.34 32.7097H86.28C86.2267 32.7097 86.18 32.6764 86.14 32.6097L85.8 31.9097C85.7867 31.8964 85.78 31.8697 85.78 31.8297C85.78 31.7631 85.8267 31.7297 85.92 31.7297C86.6533 31.7964 87.4667 31.8431 88.36 31.8697H95.24L95.74 31.1497C95.7933 31.0697 95.8667 30.9631 95.96 30.8297C96.0667 30.6831 96.1467 30.5764 96.2 30.5097C96.2667 30.4431 96.3267 30.4097 96.38 30.4097C96.4867 30.4097 96.7867 30.6297 97.28 31.0697C97.7867 31.5097 98.0933 31.8297 98.2 32.0297C98.24 32.0964 98.24 32.1564 98.2 32.2097C98.12 32.3697 97.96 32.4497 97.72 32.4497H89.2ZM90.32 35.1097C89.4933 35.1231 88.58 35.2097 87.58 35.3697H87.52C87.4667 35.3697 87.42 35.3364 87.38 35.2697L87.02 34.5697C87.0067 34.5564 87 34.5297 87 34.4897C87 34.4231 87.0467 34.3897 87.14 34.3897C87.8733 34.4564 88.6867 34.5031 89.58 34.5297H94.2L94.66 33.8497C94.7133 33.7831 94.78 33.6831 94.86 33.5497C94.9533 33.4164 95.0267 33.3164 95.08 33.2497C95.1467 33.1831 95.2067 33.1497 95.26 33.1497C95.34 33.1497 95.5267 33.2697 95.82 33.5097C96.1133 33.7364 96.3867 33.9831 96.64 34.2497C96.9067 34.5164 97.04 34.6964 97.04 34.7897C97.0267 34.8964 96.9733 34.9764 96.88 35.0297C96.7867 35.0831 96.6733 35.1097 96.54 35.1097H90.32ZM94.66 36.5297C94.7133 36.4631 94.78 36.3631 94.86 36.2297C94.9533 36.0964 95.0267 35.9964 95.08 35.9297C95.1467 35.8631 95.2067 35.8297 95.26 35.8297C95.34 35.8297 95.5267 35.9497 95.82 36.1897C96.1133 36.4164 96.3867 36.6631 96.64 36.9297C96.9067 37.1964 97.04 37.3764 97.04 37.4697C97.0267 37.5764 96.9733 37.6564 96.88 37.7097C96.7867 37.7631 96.6733 37.7897 96.54 37.7897H90.44C89.5867 37.8031 88.6333 37.8897 87.58 38.0497H87.52C87.4667 38.0497 87.42 38.0164 87.38 37.9497L87.02 37.2697C87.0067 37.2564 87 37.2297 87 37.1897C87 37.1231 87.0533 37.0897 87.16 37.0897C87.88 37.1564 88.6867 37.2031 89.58 37.2297H94.2L94.66 36.5297ZM88.98 45.4897C88.98 45.5964 88.8067 45.7164 88.46 45.8497C88.1267 45.9964 87.7867 46.0697 87.44 46.0697C87.32 46.0697 87.2267 46.0297 87.16 45.9497C87.0933 45.8697 87.06 45.7764 87.06 45.6697C87.1133 45.1497 87.1533 44.5031 87.18 43.7297V42.5497C87.18 41.2564 87.12 40.1297 87 39.1697V39.1297C87 39.0364 87.0533 39.0097 87.16 39.0497L89.08 39.8697H94.5L94.9 39.3697C94.9533 39.3164 95.0133 39.2431 95.08 39.1497C95.16 39.0431 95.2267 38.9697 95.28 38.9297C95.3333 38.8764 95.3867 38.8497 95.44 38.8497C95.56 38.8497 95.8533 39.0364 96.32 39.4097C96.8 39.7697 97.1 40.0497 97.22 40.2497C97.26 40.3031 97.2467 40.3631 97.18 40.4297C97.02 40.5897 96.8 40.6964 96.52 40.7497V42.3097C96.56 43.5897 96.6 44.5564 96.64 45.2097C96.64 45.2897 96.6133 45.3564 96.56 45.4097C96.4267 45.5431 96.1933 45.6697 95.86 45.7897C95.5267 45.9097 95.2333 45.9697 94.98 45.9697C94.7667 45.9697 94.6333 45.8697 94.58 45.6697C94.58 45.5897 94.5867 45.5231 94.6 45.4697C94.6133 45.4297 94.62 45.3764 94.62 45.3097C94.62 45.2564 94.6333 45.1831 94.66 45.0897V44.6297H88.98V45.4897ZM88.98 40.4297V44.0497H94.66V40.4297H88.98Z" fill="white"/>
<g clip-path="url(#clip0_88_217)">
<rect x="142.375" y="10.9697" width="383.15" height="52" fill="white"/>
<path d="M176.612 37.2147C176.882 37.3747 177.017 37.5547 177.017 37.7547C177.017 37.8847 176.967 38.0097 176.867 38.1297C176.767 38.2497 176.642 38.3097 176.492 38.3097C176.302 38.3097 176.107 38.2397 175.907 38.0997C175.717 37.9497 175.457 37.7147 175.127 37.3947C174.717 36.9847 174.392 36.7097 174.152 36.5697V36.5997C174.152 36.8597 174.222 37.2497 174.362 37.7697C174.512 38.2797 174.587 38.6947 174.587 39.0147C174.587 39.2147 174.537 39.3797 174.437 39.5097C174.347 39.6397 174.212 39.7047 174.032 39.7047C173.862 39.7047 173.727 39.6397 173.627 39.5097C173.527 39.3797 173.477 39.2147 173.477 39.0147C173.477 38.6947 173.552 38.2797 173.702 37.7697C173.842 37.2497 173.912 36.8597 173.912 36.5997V36.5697C173.672 36.7097 173.347 36.9847 172.937 37.3947C172.627 37.6947 172.372 37.9197 172.172 38.0697C171.972 38.2197 171.777 38.2947 171.587 38.2947C171.437 38.2947 171.312 38.2347 171.212 38.1147C171.112 37.9947 171.062 37.8697 171.062 37.7397C171.062 37.5397 171.197 37.3597 171.467 37.1997C171.677 37.0797 171.912 36.9797 172.172 36.8997C172.432 36.8197 172.587 36.7747 172.637 36.7647C172.837 36.7147 173.037 36.6597 173.237 36.5997C173.447 36.5297 173.627 36.4497 173.777 36.3597C173.557 36.2397 173.187 36.1097 172.667 35.9697C172.617 35.9597 172.457 35.9147 172.187 35.8347C171.917 35.7547 171.677 35.6547 171.467 35.5347C171.197 35.3747 171.062 35.1947 171.062 34.9947C171.062 34.8647 171.112 34.7397 171.212 34.6197C171.312 34.4997 171.437 34.4397 171.587 34.4397C171.777 34.4397 171.967 34.5147 172.157 34.6647C172.357 34.8047 172.622 35.0347 172.952 35.3547C173.362 35.7647 173.687 36.0397 173.927 36.1797V36.1197C173.927 35.8597 173.857 35.4697 173.717 34.9497C173.567 34.4397 173.492 34.0247 173.492 33.7047C173.492 33.5047 173.542 33.3397 173.642 33.2097C173.742 33.0797 173.877 33.0147 174.047 33.0147C174.227 33.0147 174.362 33.0797 174.452 33.2097C174.552 33.3397 174.602 33.5047 174.602 33.7047C174.602 34.0247 174.527 34.4397 174.377 34.9497C174.237 35.4697 174.167 35.8597 174.167 36.1197V36.1497C174.407 36.0097 174.732 35.7347 175.142 35.3247C175.452 35.0247 175.707 34.7997 175.907 34.6497C176.107 34.4997 176.302 34.4247 176.492 34.4247C176.642 34.4247 176.767 34.4847 176.867 34.6047C176.967 34.7247 177.017 34.8497 177.017 34.9797C177.017 35.1797 176.882 35.3597 176.612 35.5197C176.332 35.6797 175.927 35.8247 175.397 35.9547C175.197 36.0047 174.997 36.0647 174.797 36.1347C174.597 36.1947 174.422 36.2697 174.272 36.3597C174.532 36.5097 174.917 36.6497 175.427 36.7797C175.957 36.9197 176.352 37.0647 176.612 37.2147ZM192.233 37.2147C192.503 37.3747 192.638 37.5547 192.638 37.7547C192.638 37.8847 192.588 38.0097 192.488 38.1297C192.388 38.2497 192.263 38.3097 192.113 38.3097C191.923 38.3097 191.728 38.2397 191.528 38.0997C191.338 37.9497 191.078 37.7147 190.748 37.3947C190.338 36.9847 190.013 36.7097 189.773 36.5697V36.5997C189.773 36.8597 189.843 37.2497 189.983 37.7697C190.133 38.2797 190.208 38.6947 190.208 39.0147C190.208 39.2147 190.158 39.3797 190.058 39.5097C189.968 39.6397 189.833 39.7047 189.653 39.7047C189.483 39.7047 189.348 39.6397 189.248 39.5097C189.148 39.3797 189.098 39.2147 189.098 39.0147C189.098 38.6947 189.173 38.2797 189.323 37.7697C189.463 37.2497 189.533 36.8597 189.533 36.5997V36.5697C189.293 36.7097 188.968 36.9847 188.558 37.3947C188.248 37.6947 187.993 37.9197 187.793 38.0697C187.593 38.2197 187.398 38.2947 187.208 38.2947C187.058 38.2947 186.933 38.2347 186.833 38.1147C186.733 37.9947 186.683 37.8697 186.683 37.7397C186.683 37.5397 186.818 37.3597 187.088 37.1997C187.298 37.0797 187.533 36.9797 187.793 36.8997C188.053 36.8197 188.208 36.7747 188.258 36.7647C188.458 36.7147 188.658 36.6597 188.858 36.5997C189.068 36.5297 189.248 36.4497 189.398 36.3597C189.178 36.2397 188.808 36.1097 188.288 35.9697C188.238 35.9597 188.078 35.9147 187.808 35.8347C187.538 35.7547 187.298 35.6547 187.088 35.5347C186.818 35.3747 186.683 35.1947 186.683 34.9947C186.683 34.8647 186.733 34.7397 186.833 34.6197C186.933 34.4997 187.058 34.4397 187.208 34.4397C187.398 34.4397 187.588 34.5147 187.778 34.6647C187.978 34.8047 188.243 35.0347 188.573 35.3547C188.983 35.7647 189.308 36.0397 189.548 36.1797V36.1197C189.548 35.8597 189.478 35.4697 189.338 34.9497C189.188 34.4397 189.113 34.0247 189.113 33.7047C189.113 33.5047 189.163 33.3397 189.263 33.2097C189.363 33.0797 189.498 33.0147 189.668 33.0147C189.848 33.0147 189.983 33.0797 190.073 33.2097C190.173 33.3397 190.223 33.5047 190.223 33.7047C190.223 34.0247 190.148 34.4397 189.998 34.9497C189.858 35.4697 189.788 35.8597 189.788 36.1197V36.1497C190.028 36.0097 190.353 35.7347 190.763 35.3247C191.073 35.0247 191.328 34.7997 191.528 34.6497C191.728 34.4997 191.923 34.4247 192.113 34.4247C192.263 34.4247 192.388 34.4847 192.488 34.6047C192.588 34.7247 192.638 34.8497 192.638 34.9797C192.638 35.1797 192.503 35.3597 192.233 35.5197C191.953 35.6797 191.548 35.8247 191.018 35.9547C190.818 36.0047 190.618 36.0647 190.418 36.1347C190.218 36.1947 190.043 36.2697 189.893 36.3597C190.153 36.5097 190.538 36.6497 191.048 36.7797C191.578 36.9197 191.973 37.0647 192.233 37.2147ZM207.854 37.2147C208.124 37.3747 208.259 37.5547 208.259 37.7547C208.259 37.8847 208.209 38.0097 208.109 38.1297C208.009 38.2497 207.884 38.3097 207.734 38.3097C207.544 38.3097 207.349 38.2397 207.149 38.0997C206.959 37.9497 206.699 37.7147 206.369 37.3947C205.959 36.9847 205.634 36.7097 205.394 36.5697V36.5997C205.394 36.8597 205.464 37.2497 205.604 37.7697C205.754 38.2797 205.829 38.6947 205.829 39.0147C205.829 39.2147 205.779 39.3797 205.679 39.5097C205.589 39.6397 205.454 39.7047 205.274 39.7047C205.104 39.7047 204.969 39.6397 204.869 39.5097C204.769 39.3797 204.719 39.2147 204.719 39.0147C204.719 38.6947 204.794 38.2797 204.944 37.7697C205.084 37.2497 205.154 36.8597 205.154 36.5997V36.5697C204.914 36.7097 204.589 36.9847 204.179 37.3947C203.869 37.6947 203.614 37.9197 203.414 38.0697C203.214 38.2197 203.019 38.2947 202.829 38.2947C202.679 38.2947 202.554 38.2347 202.454 38.1147C202.354 37.9947 202.304 37.8697 202.304 37.7397C202.304 37.5397 202.439 37.3597 202.709 37.1997C202.919 37.0797 203.154 36.9797 203.414 36.8997C203.674 36.8197 203.829 36.7747 203.879 36.7647C204.079 36.7147 204.279 36.6597 204.479 36.5997C204.689 36.5297 204.869 36.4497 205.019 36.3597C204.799 36.2397 204.429 36.1097 203.909 35.9697C203.859 35.9597 203.699 35.9147 203.429 35.8347C203.159 35.7547 202.919 35.6547 202.709 35.5347C202.439 35.3747 202.304 35.1947 202.304 34.9947C202.304 34.8647 202.354 34.7397 202.454 34.6197C202.554 34.4997 202.679 34.4397 202.829 34.4397C203.019 34.4397 203.209 34.5147 203.399 34.6647C203.599 34.8047 203.864 35.0347 204.194 35.3547C204.604 35.7647 204.929 36.0397 205.169 36.1797V36.1197C205.169 35.8597 205.099 35.4697 204.959 34.9497C204.809 34.4397 204.734 34.0247 204.734 33.7047C204.734 33.5047 204.784 33.3397 204.884 33.2097C204.984 33.0797 205.119 33.0147 205.289 33.0147C205.469 33.0147 205.604 33.0797 205.694 33.2097C205.794 33.3397 205.844 33.5047 205.844 33.7047C205.844 34.0247 205.769 34.4397 205.619 34.9497C205.479 35.4697 205.409 35.8597 205.409 36.1197V36.1497C205.649 36.0097 205.974 35.7347 206.384 35.3247C206.694 35.0247 206.949 34.7997 207.149 34.6497C207.349 34.4997 207.544 34.4247 207.734 34.4247C207.884 34.4247 208.009 34.4847 208.109 34.6047C208.209 34.7247 208.259 34.8497 208.259 34.9797C208.259 35.1797 208.124 35.3597 207.854 35.5197C207.574 35.6797 207.169 35.8247 206.639 35.9547C206.439 36.0047 206.239 36.0647 206.039 36.1347C205.839 36.1947 205.664 36.2697 205.514 36.3597C205.774 36.5097 206.159 36.6497 206.669 36.7797C207.199 36.9197 207.594 37.0647 207.854 37.2147ZM223.475 37.2147C223.745 37.3747 223.88 37.5547 223.88 37.7547C223.88 37.8847 223.83 38.0097 223.73 38.1297C223.63 38.2497 223.505 38.3097 223.355 38.3097C223.165 38.3097 222.97 38.2397 222.77 38.0997C222.58 37.9497 222.32 37.7147 221.99 37.3947C221.58 36.9847 221.255 36.7097 221.015 36.5697V36.5997C221.015 36.8597 221.085 37.2497 221.225 37.7697C221.375 38.2797 221.45 38.6947 221.45 39.0147C221.45 39.2147 221.4 39.3797 221.3 39.5097C221.21 39.6397 221.075 39.7047 220.895 39.7047C220.725 39.7047 220.59 39.6397 220.49 39.5097C220.39 39.3797 220.34 39.2147 220.34 39.0147C220.34 38.6947 220.415 38.2797 220.565 37.7697C220.705 37.2497 220.775 36.8597 220.775 36.5997V36.5697C220.535 36.7097 220.21 36.9847 219.8 37.3947C219.49 37.6947 219.235 37.9197 219.035 38.0697C218.835 38.2197 218.64 38.2947 218.45 38.2947C218.3 38.2947 218.175 38.2347 218.075 38.1147C217.975 37.9947 217.925 37.8697 217.925 37.7397C217.925 37.5397 218.06 37.3597 218.33 37.1997C218.54 37.0797 218.775 36.9797 219.035 36.8997C219.295 36.8197 219.45 36.7747 219.5 36.7647C219.7 36.7147 219.9 36.6597 220.1 36.5997C220.31 36.5297 220.49 36.4497 220.64 36.3597C220.42 36.2397 220.05 36.1097 219.53 35.9697C219.48 35.9597 219.32 35.9147 219.05 35.8347C218.78 35.7547 218.54 35.6547 218.33 35.5347C218.06 35.3747 217.925 35.1947 217.925 34.9947C217.925 34.8647 217.975 34.7397 218.075 34.6197C218.175 34.4997 218.3 34.4397 218.45 34.4397C218.64 34.4397 218.83 34.5147 219.02 34.6647C219.22 34.8047 219.485 35.0347 219.815 35.3547C220.225 35.7647 220.55 36.0397 220.79 36.1797V36.1197C220.79 35.8597 220.72 35.4697 220.58 34.9497C220.43 34.4397 220.355 34.0247 220.355 33.7047C220.355 33.5047 220.405 33.3397 220.505 33.2097C220.605 33.0797 220.74 33.0147 220.91 33.0147C221.09 33.0147 221.225 33.0797 221.315 33.2097C221.415 33.3397 221.465 33.5047 221.465 33.7047C221.465 34.0247 221.39 34.4397 221.24 34.9497C221.1 35.4697 221.03 35.8597 221.03 36.1197V36.1497C221.27 36.0097 221.595 35.7347 222.005 35.3247C222.315 35.0247 222.57 34.7997 222.77 34.6497C222.97 34.4997 223.165 34.4247 223.355 34.4247C223.505 34.4247 223.63 34.4847 223.73 34.6047C223.83 34.7247 223.88 34.8497 223.88 34.9797C223.88 35.1797 223.745 35.3597 223.475 35.5197C223.195 35.6797 222.79 35.8247 222.26 35.9547C222.06 36.0047 221.86 36.0647 221.66 36.1347C221.46 36.1947 221.285 36.2697 221.135 36.3597C221.395 36.5097 221.78 36.6497 222.29 36.7797C222.82 36.9197 223.215 37.0647 223.475 37.2147ZM239.096 37.2147C239.366 37.3747 239.501 37.5547 239.501 37.7547C239.501 37.8847 239.451 38.0097 239.351 38.1297C239.251 38.2497 239.126 38.3097 238.976 38.3097C238.786 38.3097 238.591 38.2397 238.391 38.0997C238.201 37.9497 237.941 37.7147 237.611 37.3947C237.201 36.9847 236.876 36.7097 236.636 36.5697V36.5997C236.636 36.8597 236.706 37.2497 236.846 37.7697C236.996 38.2797 237.071 38.6947 237.071 39.0147C237.071 39.2147 237.021 39.3797 236.921 39.5097C236.831 39.6397 236.696 39.7047 236.516 39.7047C236.346 39.7047 236.211 39.6397 236.111 39.5097C236.011 39.3797 235.961 39.2147 235.961 39.0147C235.961 38.6947 236.036 38.2797 236.186 37.7697C236.326 37.2497 236.396 36.8597 236.396 36.5997V36.5697C236.156 36.7097 235.831 36.9847 235.421 37.3947C235.111 37.6947 234.856 37.9197 234.656 38.0697C234.456 38.2197 234.261 38.2947 234.071 38.2947C233.921 38.2947 233.796 38.2347 233.696 38.1147C233.596 37.9947 233.546 37.8697 233.546 37.7397C233.546 37.5397 233.681 37.3597 233.951 37.1997C234.161 37.0797 234.396 36.9797 234.656 36.8997C234.916 36.8197 235.071 36.7747 235.121 36.7647C235.321 36.7147 235.521 36.6597 235.721 36.5997C235.931 36.5297 236.111 36.4497 236.261 36.3597C236.041 36.2397 235.671 36.1097 235.151 35.9697C235.101 35.9597 234.941 35.9147 234.671 35.8347C234.401 35.7547 234.161 35.6547 233.951 35.5347C233.681 35.3747 233.546 35.1947 233.546 34.9947C233.546 34.8647 233.596 34.7397 233.696 34.6197C233.796 34.4997 233.921 34.4397 234.071 34.4397C234.261 34.4397 234.451 34.5147 234.641 34.6647C234.841 34.8047 235.106 35.0347 235.436 35.3547C235.846 35.7647 236.171 36.0397 236.411 36.1797V36.1197C236.411 35.8597 236.341 35.4697 236.201 34.9497C236.051 34.4397 235.976 34.0247 235.976 33.7047C235.976 33.5047 236.026 33.3397 236.126 33.2097C236.226 33.0797 236.361 33.0147 236.531 33.0147C236.711 33.0147 236.846 33.0797 236.936 33.2097C237.036 33.3397 237.086 33.5047 237.086 33.7047C237.086 34.0247 237.011 34.4397 236.861 34.9497C236.721 35.4697 236.651 35.8597 236.651 36.1197V36.1497C236.891 36.0097 237.216 35.7347 237.626 35.3247C237.936 35.0247 238.191 34.7997 238.391 34.6497C238.591 34.4997 238.786 34.4247 238.976 34.4247C239.126 34.4247 239.251 34.4847 239.351 34.6047C239.451 34.7247 239.501 34.8497 239.501 34.9797C239.501 35.1797 239.366 35.3597 239.096 35.5197C238.816 35.6797 238.411 35.8247 237.881 35.9547C237.681 36.0047 237.481 36.0647 237.281 36.1347C237.081 36.1947 236.906 36.2697 236.756 36.3597C237.016 36.5097 237.401 36.6497 237.911 36.7797C238.441 36.9197 238.836 37.0647 239.096 37.2147ZM254.717 37.2147C254.987 37.3747 255.122 37.5547 255.122 37.7547C255.122 37.8847 255.072 38.0097 254.972 38.1297C254.872 38.2497 254.747 38.3097 254.597 38.3097C254.407 38.3097 254.212 38.2397 254.012 38.0997C253.822 37.9497 253.562 37.7147 253.232 37.3947C252.822 36.9847 252.497 36.7097 252.257 36.5697V36.5997C252.257 36.8597 252.327 37.2497 252.467 37.7697C252.617 38.2797 252.692 38.6947 252.692 39.0147C252.692 39.2147 252.642 39.3797 252.542 39.5097C252.452 39.6397 252.317 39.7047 252.137 39.7047C251.967 39.7047 251.832 39.6397 251.732 39.5097C251.632 39.3797 251.582 39.2147 251.582 39.0147C251.582 38.6947 251.657 38.2797 251.807 37.7697C251.947 37.2497 252.017 36.8597 252.017 36.5997V36.5697C251.777 36.7097 251.452 36.9847 251.042 37.3947C250.732 37.6947 250.477 37.9197 250.277 38.0697C250.077 38.2197 249.882 38.2947 249.692 38.2947C249.542 38.2947 249.417 38.2347 249.317 38.1147C249.217 37.9947 249.167 37.8697 249.167 37.7397C249.167 37.5397 249.302 37.3597 249.572 37.1997C249.782 37.0797 250.017 36.9797 250.277 36.8997C250.537 36.8197 250.692 36.7747 250.742 36.7647C250.942 36.7147 251.142 36.6597 251.342 36.5997C251.552 36.5297 251.732 36.4497 251.882 36.3597C251.662 36.2397 251.292 36.1097 250.772 35.9697C250.722 35.9597 250.562 35.9147 250.292 35.8347C250.022 35.7547 249.782 35.6547 249.572 35.5347C249.302 35.3747 249.167 35.1947 249.167 34.9947C249.167 34.8647 249.217 34.7397 249.317 34.6197C249.417 34.4997 249.542 34.4397 249.692 34.4397C249.882 34.4397 250.072 34.5147 250.262 34.6647C250.462 34.8047 250.727 35.0347 251.057 35.3547C251.467 35.7647 251.792 36.0397 252.032 36.1797V36.1197C252.032 35.8597 251.962 35.4697 251.822 34.9497C251.672 34.4397 251.597 34.0247 251.597 33.7047C251.597 33.5047 251.647 33.3397 251.747 33.2097C251.847 33.0797 251.982 33.0147 252.152 33.0147C252.332 33.0147 252.467 33.0797 252.557 33.2097C252.657 33.3397 252.707 33.5047 252.707 33.7047C252.707 34.0247 252.632 34.4397 252.482 34.9497C252.342 35.4697 252.272 35.8597 252.272 36.1197V36.1497C252.512 36.0097 252.837 35.7347 253.247 35.3247C253.557 35.0247 253.812 34.7997 254.012 34.6497C254.212 34.4997 254.407 34.4247 254.597 34.4247C254.747 34.4247 254.872 34.4847 254.972 34.6047C255.072 34.7247 255.122 34.8497 255.122 34.9797C255.122 35.1797 254.987 35.3597 254.717 35.5197C254.437 35.6797 254.032 35.8247 253.502 35.9547C253.302 36.0047 253.102 36.0647 252.902 36.1347C252.702 36.1947 252.527 36.2697 252.377 36.3597C252.637 36.5097 253.022 36.6497 253.532 36.7797C254.062 36.9197 254.457 37.0647 254.717 37.2147ZM270.338 37.2147C270.608 37.3747 270.743 37.5547 270.743 37.7547C270.743 37.8847 270.693 38.0097 270.593 38.1297C270.493 38.2497 270.368 38.3097 270.218 38.3097C270.028 38.3097 269.833 38.2397 269.633 38.0997C269.443 37.9497 269.183 37.7147 268.853 37.3947C268.443 36.9847 268.118 36.7097 267.878 36.5697V36.5997C267.878 36.8597 267.948 37.2497 268.088 37.7697C268.238 38.2797 268.313 38.6947 268.313 39.0147C268.313 39.2147 268.263 39.3797 268.163 39.5097C268.073 39.6397 267.938 39.7047 267.758 39.7047C267.588 39.7047 267.453 39.6397 267.353 39.5097C267.253 39.3797 267.203 39.2147 267.203 39.0147C267.203 38.6947 267.278 38.2797 267.428 37.7697C267.568 37.2497 267.638 36.8597 267.638 36.5997V36.5697C267.398 36.7097 267.073 36.9847 266.663 37.3947C266.353 37.6947 266.098 37.9197 265.898 38.0697C265.698 38.2197 265.503 38.2947 265.313 38.2947C265.163 38.2947 265.038 38.2347 264.938 38.1147C264.838 37.9947 264.788 37.8697 264.788 37.7397C264.788 37.5397 264.923 37.3597 265.193 37.1997C265.403 37.0797 265.638 36.9797 265.898 36.8997C266.158 36.8197 266.313 36.7747 266.363 36.7647C266.563 36.7147 266.763 36.6597 266.963 36.5997C267.173 36.5297 267.353 36.4497 267.503 36.3597C267.283 36.2397 266.913 36.1097 266.393 35.9697C266.343 35.9597 266.183 35.9147 265.913 35.8347C265.643 35.7547 265.403 35.6547 265.193 35.5347C264.923 35.3747 264.788 35.1947 264.788 34.9947C264.788 34.8647 264.838 34.7397 264.938 34.6197C265.038 34.4997 265.163 34.4397 265.313 34.4397C265.503 34.4397 265.693 34.5147 265.883 34.6647C266.083 34.8047 266.348 35.0347 266.678 35.3547C267.088 35.7647 267.413 36.0397 267.653 36.1797V36.1197C267.653 35.8597 267.583 35.4697 267.443 34.9497C267.293 34.4397 267.218 34.0247 267.218 33.7047C267.218 33.5047 267.268 33.3397 267.368 33.2097C267.468 33.0797 267.603 33.0147 267.773 33.0147C267.953 33.0147 268.088 33.0797 268.178 33.2097C268.278 33.3397 268.328 33.5047 268.328 33.7047C268.328 34.0247 268.253 34.4397 268.103 34.9497C267.963 35.4697 267.893 35.8597 267.893 36.1197V36.1497C268.133 36.0097 268.458 35.7347 268.868 35.3247C269.178 35.0247 269.433 34.7997 269.633 34.6497C269.833 34.4997 270.028 34.4247 270.218 34.4247C270.368 34.4247 270.493 34.4847 270.593 34.6047C270.693 34.7247 270.743 34.8497 270.743 34.9797C270.743 35.1797 270.608 35.3597 270.338 35.5197C270.058 35.6797 269.653 35.8247 269.123 35.9547C268.923 36.0047 268.723 36.0647 268.523 36.1347C268.323 36.1947 268.148 36.2697 267.998 36.3597C268.258 36.5097 268.643 36.6497 269.153 36.7797C269.683 36.9197 270.078 37.0647 270.338 37.2147ZM285.959 37.2147C286.229 37.3747 286.364 37.5547 286.364 37.7547C286.364 37.8847 286.314 38.0097 286.214 38.1297C286.114 38.2497 285.989 38.3097 285.839 38.3097C285.649 38.3097 285.454 38.2397 285.254 38.0997C285.064 37.9497 284.804 37.7147 284.474 37.3947C284.064 36.9847 283.739 36.7097 283.499 36.5697V36.5997C283.499 36.8597 283.569 37.2497 283.709 37.7697C283.859 38.2797 283.934 38.6947 283.934 39.0147C283.934 39.2147 283.884 39.3797 283.784 39.5097C283.694 39.6397 283.559 39.7047 283.379 39.7047C283.209 39.7047 283.074 39.6397 282.974 39.5097C282.874 39.3797 282.824 39.2147 282.824 39.0147C282.824 38.6947 282.899 38.2797 283.049 37.7697C283.189 37.2497 283.259 36.8597 283.259 36.5997V36.5697C283.019 36.7097 282.694 36.9847 282.284 37.3947C281.974 37.6947 281.719 37.9197 281.519 38.0697C281.319 38.2197 281.124 38.2947 280.934 38.2947C280.784 38.2947 280.659 38.2347 280.559 38.1147C280.459 37.9947 280.409 37.8697 280.409 37.7397C280.409 37.5397 280.544 37.3597 280.814 37.1997C281.024 37.0797 281.259 36.9797 281.519 36.8997C281.779 36.8197 281.934 36.7747 281.984 36.7647C282.184 36.7147 282.384 36.6597 282.584 36.5997C282.794 36.5297 282.974 36.4497 283.124 36.3597C282.904 36.2397 282.534 36.1097 282.014 35.9697C281.964 35.9597 281.804 35.9147 281.534 35.8347C281.264 35.7547 281.024 35.6547 280.814 35.5347C280.544 35.3747 280.409 35.1947 280.409 34.9947C280.409 34.8647 280.459 34.7397 280.559 34.6197C280.659 34.4997 280.784 34.4397 280.934 34.4397C281.124 34.4397 281.314 34.5147 281.504 34.6647C281.704 34.8047 281.969 35.0347 282.299 35.3547C282.709 35.7647 283.034 36.0397 283.274 36.1797V36.1197C283.274 35.8597 283.204 35.4697 283.064 34.9497C282.914 34.4397 282.839 34.0247 282.839 33.7047C282.839 33.5047 282.889 33.3397 282.989 33.2097C283.089 33.0797 283.224 33.0147 283.394 33.0147C283.574 33.0147 283.709 33.0797 283.799 33.2097C283.899 33.3397 283.949 33.5047 283.949 33.7047C283.949 34.0247 283.874 34.4397 283.724 34.9497C283.584 35.4697 283.514 35.8597 283.514 36.1197V36.1497C283.754 36.0097 284.079 35.7347 284.489 35.3247C284.799 35.0247 285.054 34.7997 285.254 34.6497C285.454 34.4997 285.649 34.4247 285.839 34.4247C285.989 34.4247 286.114 34.4847 286.214 34.6047C286.314 34.7247 286.364 34.8497 286.364 34.9797C286.364 35.1797 286.229 35.3597 285.959 35.5197C285.679 35.6797 285.274 35.8247 284.744 35.9547C284.544 36.0047 284.344 36.0647 284.144 36.1347C283.944 36.1947 283.769 36.2697 283.619 36.3597C283.879 36.5097 284.264 36.6497 284.774 36.7797C285.304 36.9197 285.699 37.0647 285.959 37.2147ZM301.581 37.2147C301.851 37.3747 301.986 37.5547 301.986 37.7547C301.986 37.8847 301.936 38.0097 301.836 38.1297C301.736 38.2497 301.611 38.3097 301.461 38.3097C301.271 38.3097 301.076 38.2397 300.876 38.0997C300.686 37.9497 300.426 37.7147 300.096 37.3947C299.686 36.9847 299.361 36.7097 299.121 36.5697V36.5997C299.121 36.8597 299.191 37.2497 299.331 37.7697C299.481 38.2797 299.556 38.6947 299.556 39.0147C299.556 39.2147 299.506 39.3797 299.406 39.5097C299.316 39.6397 299.181 39.7047 299.001 39.7047C298.831 39.7047 298.696 39.6397 298.596 39.5097C298.496 39.3797 298.446 39.2147 298.446 39.0147C298.446 38.6947 298.521 38.2797 298.671 37.7697C298.811 37.2497 298.881 36.8597 298.881 36.5997V36.5697C298.641 36.7097 298.316 36.9847 297.906 37.3947C297.596 37.6947 297.341 37.9197 297.141 38.0697C296.941 38.2197 296.746 38.2947 296.556 38.2947C296.406 38.2947 296.281 38.2347 296.181 38.1147C296.081 37.9947 296.031 37.8697 296.031 37.7397C296.031 37.5397 296.166 37.3597 296.436 37.1997C296.646 37.0797 296.881 36.9797 297.141 36.8997C297.401 36.8197 297.556 36.7747 297.606 36.7647C297.806 36.7147 298.006 36.6597 298.206 36.5997C298.416 36.5297 298.596 36.4497 298.746 36.3597C298.526 36.2397 298.156 36.1097 297.636 35.9697C297.586 35.9597 297.426 35.9147 297.156 35.8347C296.886 35.7547 296.646 35.6547 296.436 35.5347C296.166 35.3747 296.031 35.1947 296.031 34.9947C296.031 34.8647 296.081 34.7397 296.181 34.6197C296.281 34.4997 296.406 34.4397 296.556 34.4397C296.746 34.4397 296.936 34.5147 297.126 34.6647C297.326 34.8047 297.591 35.0347 297.921 35.3547C298.331 35.7647 298.656 36.0397 298.896 36.1797V36.1197C298.896 35.8597 298.826 35.4697 298.686 34.9497C298.536 34.4397 298.461 34.0247 298.461 33.7047C298.461 33.5047 298.511 33.3397 298.611 33.2097C298.711 33.0797 298.846 33.0147 299.016 33.0147C299.196 33.0147 299.331 33.0797 299.421 33.2097C299.521 33.3397 299.571 33.5047 299.571 33.7047C299.571 34.0247 299.496 34.4397 299.346 34.9497C299.206 35.4697 299.136 35.8597 299.136 36.1197V36.1497C299.376 36.0097 299.701 35.7347 300.111 35.3247C300.421 35.0247 300.676 34.7997 300.876 34.6497C301.076 34.4997 301.271 34.4247 301.461 34.4247C301.611 34.4247 301.736 34.4847 301.836 34.6047C301.936 34.7247 301.986 34.8497 301.986 34.9797C301.986 35.1797 301.851 35.3597 301.581 35.5197C301.301 35.6797 300.896 35.8247 300.366 35.9547C300.166 36.0047 299.966 36.0647 299.766 36.1347C299.566 36.1947 299.391 36.2697 299.241 36.3597C299.501 36.5097 299.886 36.6497 300.396 36.7797C300.926 36.9197 301.321 37.0647 301.581 37.2147ZM317.202 37.2147C317.472 37.3747 317.607 37.5547 317.607 37.7547C317.607 37.8847 317.557 38.0097 317.457 38.1297C317.357 38.2497 317.232 38.3097 317.082 38.3097C316.892 38.3097 316.697 38.2397 316.497 38.0997C316.307 37.9497 316.047 37.7147 315.717 37.3947C315.307 36.9847 314.982 36.7097 314.742 36.5697V36.5997C314.742 36.8597 314.812 37.2497 314.952 37.7697C315.102 38.2797 315.177 38.6947 315.177 39.0147C315.177 39.2147 315.127 39.3797 315.027 39.5097C314.937 39.6397 314.802 39.7047 314.622 39.7047C314.452 39.7047 314.317 39.6397 314.217 39.5097C314.117 39.3797 314.067 39.2147 314.067 39.0147C314.067 38.6947 314.142 38.2797 314.292 37.7697C314.432 37.2497 314.502 36.8597 314.502 36.5997V36.5697C314.262 36.7097 313.937 36.9847 313.527 37.3947C313.217 37.6947 312.962 37.9197 312.762 38.0697C312.562 38.2197 312.367 38.2947 312.177 38.2947C312.027 38.2947 311.902 38.2347 311.802 38.1147C311.702 37.9947 311.652 37.8697 311.652 37.7397C311.652 37.5397 311.787 37.3597 312.057 37.1997C312.267 37.0797 312.502 36.9797 312.762 36.8997C313.022 36.8197 313.177 36.7747 313.227 36.7647C313.427 36.7147 313.627 36.6597 313.827 36.5997C314.037 36.5297 314.217 36.4497 314.367 36.3597C314.147 36.2397 313.777 36.1097 313.257 35.9697C313.207 35.9597 313.047 35.9147 312.777 35.8347C312.507 35.7547 312.267 35.6547 312.057 35.5347C311.787 35.3747 311.652 35.1947 311.652 34.9947C311.652 34.8647 311.702 34.7397 311.802 34.6197C311.902 34.4997 312.027 34.4397 312.177 34.4397C312.367 34.4397 312.557 34.5147 312.747 34.6647C312.947 34.8047 313.212 35.0347 313.542 35.3547C313.952 35.7647 314.277 36.0397 314.517 36.1797V36.1197C314.517 35.8597 314.447 35.4697 314.307 34.9497C314.157 34.4397 314.082 34.0247 314.082 33.7047C314.082 33.5047 314.132 33.3397 314.232 33.2097C314.332 33.0797 314.467 33.0147 314.637 33.0147C314.817 33.0147 314.952 33.0797 315.042 33.2097C315.142 33.3397 315.192 33.5047 315.192 33.7047C315.192 34.0247 315.117 34.4397 314.967 34.9497C314.827 35.4697 314.757 35.8597 314.757 36.1197V36.1497C314.997 36.0097 315.322 35.7347 315.732 35.3247C316.042 35.0247 316.297 34.7997 316.497 34.6497C316.697 34.4997 316.892 34.4247 317.082 34.4247C317.232 34.4247 317.357 34.4847 317.457 34.6047C317.557 34.7247 317.607 34.8497 317.607 34.9797C317.607 35.1797 317.472 35.3597 317.202 35.5197C316.922 35.6797 316.517 35.8247 315.987 35.9547C315.787 36.0047 315.587 36.0647 315.387 36.1347C315.187 36.1947 315.012 36.2697 314.862 36.3597C315.122 36.5097 315.507 36.6497 316.017 36.7797C316.547 36.9197 316.942 37.0647 317.202 37.2147ZM332.823 37.2147C333.093 37.3747 333.228 37.5547 333.228 37.7547C333.228 37.8847 333.178 38.0097 333.078 38.1297C332.978 38.2497 332.853 38.3097 332.703 38.3097C332.513 38.3097 332.318 38.2397 332.118 38.0997C331.928 37.9497 331.668 37.7147 331.338 37.3947C330.928 36.9847 330.603 36.7097 330.363 36.5697V36.5997C330.363 36.8597 330.433 37.2497 330.573 37.7697C330.723 38.2797 330.798 38.6947 330.798 39.0147C330.798 39.2147 330.748 39.3797 330.648 39.5097C330.558 39.6397 330.423 39.7047 330.243 39.7047C330.073 39.7047 329.938 39.6397 329.838 39.5097C329.738 39.3797 329.688 39.2147 329.688 39.0147C329.688 38.6947 329.763 38.2797 329.913 37.7697C330.053 37.2497 330.123 36.8597 330.123 36.5997V36.5697C329.883 36.7097 329.558 36.9847 329.148 37.3947C328.838 37.6947 328.583 37.9197 328.383 38.0697C328.183 38.2197 327.988 38.2947 327.798 38.2947C327.648 38.2947 327.523 38.2347 327.423 38.1147C327.323 37.9947 327.273 37.8697 327.273 37.7397C327.273 37.5397 327.408 37.3597 327.678 37.1997C327.888 37.0797 328.123 36.9797 328.383 36.8997C328.643 36.8197 328.798 36.7747 328.848 36.7647C329.048 36.7147 329.248 36.6597 329.448 36.5997C329.658 36.5297 329.838 36.4497 329.988 36.3597C329.768 36.2397 329.398 36.1097 328.878 35.9697C328.828 35.9597 328.668 35.9147 328.398 35.8347C328.128 35.7547 327.888 35.6547 327.678 35.5347C327.408 35.3747 327.273 35.1947 327.273 34.9947C327.273 34.8647 327.323 34.7397 327.423 34.6197C327.523 34.4997 327.648 34.4397 327.798 34.4397C327.988 34.4397 328.178 34.5147 328.368 34.6647C328.568 34.8047 328.833 35.0347 329.163 35.3547C329.573 35.7647 329.898 36.0397 330.138 36.1797V36.1197C330.138 35.8597 330.068 35.4697 329.928 34.9497C329.778 34.4397 329.703 34.0247 329.703 33.7047C329.703 33.5047 329.753 33.3397 329.853 33.2097C329.953 33.0797 330.088 33.0147 330.258 33.0147C330.438 33.0147 330.573 33.0797 330.663 33.2097C330.763 33.3397 330.813 33.5047 330.813 33.7047C330.813 34.0247 330.738 34.4397 330.588 34.9497C330.448 35.4697 330.378 35.8597 330.378 36.1197V36.1497C330.618 36.0097 330.943 35.7347 331.353 35.3247C331.663 35.0247 331.918 34.7997 332.118 34.6497C332.318 34.4997 332.513 34.4247 332.703 34.4247C332.853 34.4247 332.978 34.4847 333.078 34.6047C333.178 34.7247 333.228 34.8497 333.228 34.9797C333.228 35.1797 333.093 35.3597 332.823 35.5197C332.543 35.6797 332.138 35.8247 331.608 35.9547C331.408 36.0047 331.208 36.0647 331.008 36.1347C330.808 36.1947 330.633 36.2697 330.483 36.3597C330.743 36.5097 331.128 36.6497 331.638 36.7797C332.168 36.9197 332.563 37.0647 332.823 37.2147ZM348.444 37.2147C348.714 37.3747 348.849 37.5547 348.849 37.7547C348.849 37.8847 348.799 38.0097 348.699 38.1297C348.599 38.2497 348.474 38.3097 348.324 38.3097C348.134 38.3097 347.939 38.2397 347.739 38.0997C347.549 37.9497 347.289 37.7147 346.959 37.3947C346.549 36.9847 346.224 36.7097 345.984 36.5697V36.5997C345.984 36.8597 346.054 37.2497 346.194 37.7697C346.344 38.2797 346.419 38.6947 346.419 39.0147C346.419 39.2147 346.369 39.3797 346.269 39.5097C346.179 39.6397 346.044 39.7047 345.864 39.7047C345.694 39.7047 345.559 39.6397 345.459 39.5097C345.359 39.3797 345.309 39.2147 345.309 39.0147C345.309 38.6947 345.384 38.2797 345.534 37.7697C345.674 37.2497 345.744 36.8597 345.744 36.5997V36.5697C345.504 36.7097 345.179 36.9847 344.769 37.3947C344.459 37.6947 344.204 37.9197 344.004 38.0697C343.804 38.2197 343.609 38.2947 343.419 38.2947C343.269 38.2947 343.144 38.2347 343.044 38.1147C342.944 37.9947 342.894 37.8697 342.894 37.7397C342.894 37.5397 343.029 37.3597 343.299 37.1997C343.509 37.0797 343.744 36.9797 344.004 36.8997C344.264 36.8197 344.419 36.7747 344.469 36.7647C344.669 36.7147 344.869 36.6597 345.069 36.5997C345.279 36.5297 345.459 36.4497 345.609 36.3597C345.389 36.2397 345.019 36.1097 344.499 35.9697C344.449 35.9597 344.289 35.9147 344.019 35.8347C343.749 35.7547 343.509 35.6547 343.299 35.5347C343.029 35.3747 342.894 35.1947 342.894 34.9947C342.894 34.8647 342.944 34.7397 343.044 34.6197C343.144 34.4997 343.269 34.4397 343.419 34.4397C343.609 34.4397 343.799 34.5147 343.989 34.6647C344.189 34.8047 344.454 35.0347 344.784 35.3547C345.194 35.7647 345.519 36.0397 345.759 36.1797V36.1197C345.759 35.8597 345.689 35.4697 345.549 34.9497C345.399 34.4397 345.324 34.0247 345.324 33.7047C345.324 33.5047 345.374 33.3397 345.474 33.2097C345.574 33.0797 345.709 33.0147 345.879 33.0147C346.059 33.0147 346.194 33.0797 346.284 33.2097C346.384 33.3397 346.434 33.5047 346.434 33.7047C346.434 34.0247 346.359 34.4397 346.209 34.9497C346.069 35.4697 345.999 35.8597 345.999 36.1197V36.1497C346.239 36.0097 346.564 35.7347 346.974 35.3247C347.284 35.0247 347.539 34.7997 347.739 34.6497C347.939 34.4997 348.134 34.4247 348.324 34.4247C348.474 34.4247 348.599 34.4847 348.699 34.6047C348.799 34.7247 348.849 34.8497 348.849 34.9797C348.849 35.1797 348.714 35.3597 348.444 35.5197C348.164 35.6797 347.759 35.8247 347.229 35.9547C347.029 36.0047 346.829 36.0647 346.629 36.1347C346.429 36.1947 346.254 36.2697 346.104 36.3597C346.364 36.5097 346.749 36.6497 347.259 36.7797C347.789 36.9197 348.184 37.0647 348.444 37.2147ZM364.065 37.2147C364.335 37.3747 364.47 37.5547 364.47 37.7547C364.47 37.8847 364.42 38.0097 364.32 38.1297C364.22 38.2497 364.095 38.3097 363.945 38.3097C363.755 38.3097 363.56 38.2397 363.36 38.0997C363.17 37.9497 362.91 37.7147 362.58 37.3947C362.17 36.9847 361.845 36.7097 361.605 36.5697V36.5997C361.605 36.8597 361.675 37.2497 361.815 37.7697C361.965 38.2797 362.04 38.6947 362.04 39.0147C362.04 39.2147 361.99 39.3797 361.89 39.5097C361.8 39.6397 361.665 39.7047 361.485 39.7047C361.315 39.7047 361.18 39.6397 361.08 39.5097C360.98 39.3797 360.93 39.2147 360.93 39.0147C360.93 38.6947 361.005 38.2797 361.155 37.7697C361.295 37.2497 361.365 36.8597 361.365 36.5997V36.5697C361.125 36.7097 360.8 36.9847 360.39 37.3947C360.08 37.6947 359.825 37.9197 359.625 38.0697C359.425 38.2197 359.23 38.2947 359.04 38.2947C358.89 38.2947 358.765 38.2347 358.665 38.1147C358.565 37.9947 358.515 37.8697 358.515 37.7397C358.515 37.5397 358.65 37.3597 358.92 37.1997C359.13 37.0797 359.365 36.9797 359.625 36.8997C359.885 36.8197 360.04 36.7747 360.09 36.7647C360.29 36.7147 360.49 36.6597 360.69 36.5997C360.9 36.5297 361.08 36.4497 361.23 36.3597C361.01 36.2397 360.64 36.1097 360.12 35.9697C360.07 35.9597 359.91 35.9147 359.64 35.8347C359.37 35.7547 359.13 35.6547 358.92 35.5347C358.65 35.3747 358.515 35.1947 358.515 34.9947C358.515 34.8647 358.565 34.7397 358.665 34.6197C358.765 34.4997 358.89 34.4397 359.04 34.4397C359.23 34.4397 359.42 34.5147 359.61 34.6647C359.81 34.8047 360.075 35.0347 360.405 35.3547C360.815 35.7647 361.14 36.0397 361.38 36.1797V36.1197C361.38 35.8597 361.31 35.4697 361.17 34.9497C361.02 34.4397 360.945 34.0247 360.945 33.7047C360.945 33.5047 360.995 33.3397 361.095 33.2097C361.195 33.0797 361.33 33.0147 361.5 33.0147C361.68 33.0147 361.815 33.0797 361.905 33.2097C362.005 33.3397 362.055 33.5047 362.055 33.7047C362.055 34.0247 361.98 34.4397 361.83 34.9497C361.69 35.4697 361.62 35.8597 361.62 36.1197V36.1497C361.86 36.0097 362.185 35.7347 362.595 35.3247C362.905 35.0247 363.16 34.7997 363.36 34.6497C363.56 34.4997 363.755 34.4247 363.945 34.4247C364.095 34.4247 364.22 34.4847 364.32 34.6047C364.42 34.7247 364.47 34.8497 364.47 34.9797C364.47 35.1797 364.335 35.3597 364.065 35.5197C363.785 35.6797 363.38 35.8247 362.85 35.9547C362.65 36.0047 362.45 36.0647 362.25 36.1347C362.05 36.1947 361.875 36.2697 361.725 36.3597C361.985 36.5097 362.37 36.6497 362.88 36.7797C363.41 36.9197 363.805 37.0647 364.065 37.2147ZM379.686 37.2147C379.956 37.3747 380.091 37.5547 380.091 37.7547C380.091 37.8847 380.041 38.0097 379.941 38.1297C379.841 38.2497 379.716 38.3097 379.566 38.3097C379.376 38.3097 379.181 38.2397 378.981 38.0997C378.791 37.9497 378.531 37.7147 378.201 37.3947C377.791 36.9847 377.466 36.7097 377.226 36.5697V36.5997C377.226 36.8597 377.296 37.2497 377.436 37.7697C377.586 38.2797 377.661 38.6947 377.661 39.0147C377.661 39.2147 377.611 39.3797 377.511 39.5097C377.421 39.6397 377.286 39.7047 377.106 39.7047C376.936 39.7047 376.801 39.6397 376.701 39.5097C376.601 39.3797 376.551 39.2147 376.551 39.0147C376.551 38.6947 376.626 38.2797 376.776 37.7697C376.916 37.2497 376.986 36.8597 376.986 36.5997V36.5697C376.746 36.7097 376.421 36.9847 376.011 37.3947C375.701 37.6947 375.446 37.9197 375.246 38.0697C375.046 38.2197 374.851 38.2947 374.661 38.2947C374.511 38.2947 374.386 38.2347 374.286 38.1147C374.186 37.9947 374.136 37.8697 374.136 37.7397C374.136 37.5397 374.271 37.3597 374.541 37.1997C374.751 37.0797 374.986 36.9797 375.246 36.8997C375.506 36.8197 375.661 36.7747 375.711 36.7647C375.911 36.7147 376.111 36.6597 376.311 36.5997C376.521 36.5297 376.701 36.4497 376.851 36.3597C376.631 36.2397 376.261 36.1097 375.741 35.9697C375.691 35.9597 375.531 35.9147 375.261 35.8347C374.991 35.7547 374.751 35.6547 374.541 35.5347C374.271 35.3747 374.136 35.1947 374.136 34.9947C374.136 34.8647 374.186 34.7397 374.286 34.6197C374.386 34.4997 374.511 34.4397 374.661 34.4397C374.851 34.4397 375.041 34.5147 375.231 34.6647C375.431 34.8047 375.696 35.0347 376.026 35.3547C376.436 35.7647 376.761 36.0397 377.001 36.1797V36.1197C377.001 35.8597 376.931 35.4697 376.791 34.9497C376.641 34.4397 376.566 34.0247 376.566 33.7047C376.566 33.5047 376.616 33.3397 376.716 33.2097C376.816 33.0797 376.951 33.0147 377.121 33.0147C377.301 33.0147 377.436 33.0797 377.526 33.2097C377.626 33.3397 377.676 33.5047 377.676 33.7047C377.676 34.0247 377.601 34.4397 377.451 34.9497C377.311 35.4697 377.241 35.8597 377.241 36.1197V36.1497C377.481 36.0097 377.806 35.7347 378.216 35.3247C378.526 35.0247 378.781 34.7997 378.981 34.6497C379.181 34.4997 379.376 34.4247 379.566 34.4247C379.716 34.4247 379.841 34.4847 379.941 34.6047C380.041 34.7247 380.091 34.8497 380.091 34.9797C380.091 35.1797 379.956 35.3597 379.686 35.5197C379.406 35.6797 379.001 35.8247 378.471 35.9547C378.271 36.0047 378.071 36.0647 377.871 36.1347C377.671 36.1947 377.496 36.2697 377.346 36.3597C377.606 36.5097 377.991 36.6497 378.501 36.7797C379.031 36.9197 379.426 37.0647 379.686 37.2147ZM395.307 37.2147C395.577 37.3747 395.712 37.5547 395.712 37.7547C395.712 37.8847 395.662 38.0097 395.562 38.1297C395.462 38.2497 395.337 38.3097 395.187 38.3097C394.997 38.3097 394.802 38.2397 394.602 38.0997C394.412 37.9497 394.152 37.7147 393.822 37.3947C393.412 36.9847 393.087 36.7097 392.847 36.5697V36.5997C392.847 36.8597 392.917 37.2497 393.057 37.7697C393.207 38.2797 393.282 38.6947 393.282 39.0147C393.282 39.2147 393.232 39.3797 393.132 39.5097C393.042 39.6397 392.907 39.7047 392.727 39.7047C392.557 39.7047 392.422 39.6397 392.322 39.5097C392.222 39.3797 392.172 39.2147 392.172 39.0147C392.172 38.6947 392.247 38.2797 392.397 37.7697C392.537 37.2497 392.607 36.8597 392.607 36.5997V36.5697C392.367 36.7097 392.042 36.9847 391.632 37.3947C391.322 37.6947 391.067 37.9197 390.867 38.0697C390.667 38.2197 390.472 38.2947 390.282 38.2947C390.132 38.2947 390.007 38.2347 389.907 38.1147C389.807 37.9947 389.757 37.8697 389.757 37.7397C389.757 37.5397 389.892 37.3597 390.162 37.1997C390.372 37.0797 390.607 36.9797 390.867 36.8997C391.127 36.8197 391.282 36.7747 391.332 36.7647C391.532 36.7147 391.732 36.6597 391.932 36.5997C392.142 36.5297 392.322 36.4497 392.472 36.3597C392.252 36.2397 391.882 36.1097 391.362 35.9697C391.312 35.9597 391.152 35.9147 390.882 35.8347C390.612 35.7547 390.372 35.6547 390.162 35.5347C389.892 35.3747 389.757 35.1947 389.757 34.9947C389.757 34.8647 389.807 34.7397 389.907 34.6197C390.007 34.4997 390.132 34.4397 390.282 34.4397C390.472 34.4397 390.662 34.5147 390.852 34.6647C391.052 34.8047 391.317 35.0347 391.647 35.3547C392.057 35.7647 392.382 36.0397 392.622 36.1797V36.1197C392.622 35.8597 392.552 35.4697 392.412 34.9497C392.262 34.4397 392.187 34.0247 392.187 33.7047C392.187 33.5047 392.237 33.3397 392.337 33.2097C392.437 33.0797 392.572 33.0147 392.742 33.0147C392.922 33.0147 393.057 33.0797 393.147 33.2097C393.247 33.3397 393.297 33.5047 393.297 33.7047C393.297 34.0247 393.222 34.4397 393.072 34.9497C392.932 35.4697 392.862 35.8597 392.862 36.1197V36.1497C393.102 36.0097 393.427 35.7347 393.837 35.3247C394.147 35.0247 394.402 34.7997 394.602 34.6497C394.802 34.4997 394.997 34.4247 395.187 34.4247C395.337 34.4247 395.462 34.4847 395.562 34.6047C395.662 34.7247 395.712 34.8497 395.712 34.9797C395.712 35.1797 395.577 35.3597 395.307 35.5197C395.027 35.6797 394.622 35.8247 394.092 35.9547C393.892 36.0047 393.692 36.0647 393.492 36.1347C393.292 36.1947 393.117 36.2697 392.967 36.3597C393.227 36.5097 393.612 36.6497 394.122 36.7797C394.652 36.9197 395.047 37.0647 395.307 37.2147Z" fill="#222222"/>
</g>
<rect x="142.875" y="11.4697" width="382.15" height="51" stroke="black"/>
<defs>
<clipPath id="clip0_88_217">
<rect x="142.375" y="10.9697" width="383.15" height="52" fill="white"/>
</clipPath>
</defs>
</svg>
