<svg width="237" height="34" viewBox="0 0 237 34" fill="none" xmlns="http://www.w3.org/2000/svg">
<path d="M47.5145 5.56982L50.7345 5.74976C50.8645 5.74976 51.2345 5.77979 51.2345 6.02979C51.2345 6.27979 50.9345 6.37972 50.6045 6.45972V7.88965H60.4545V10.5996H37.6045V7.88965H47.5045V5.57983L47.5145 5.56982ZM45.8345 21.5798C46.0345 21.7098 46.2145 21.8098 46.2145 22.0098C46.2145 22.2898 45.7945 22.2898 45.5345 22.2598C45.0245 23.0898 43.4245 25.6998 40.5845 28.0098C39.4245 27.0798 39.0045 26.7297 37.8245 26.2297C40.1545 24.3197 41.7645 22.5598 43.1245 20.0698L45.8345 21.5798ZM50.6045 25.7798C50.6045 27.8598 50.1545 28.7396 45.7845 28.5896C45.6845 27.6396 45.2045 26.3797 44.6245 25.3997C45.5345 25.5197 46.0545 25.5798 46.5045 25.5798C47.3345 25.5798 47.5045 25.2997 47.5045 24.7297V19.5996H40.5945V11.9597H57.4645V19.5996H50.6045V25.7798ZM43.6945 14.4897V17.0498H54.4245V14.4897H43.6945ZM54.7245 20.2197C56.2645 21.4997 58.4445 23.8397 59.7045 25.9497C58.3945 26.7797 58.2445 26.8797 56.9445 27.9597C55.9145 26.0197 54.0245 23.4398 52.1645 21.8298L54.7245 20.2197Z" fill="white"/>
<path d="M63.8746 11.55C64.5746 11.93 66.3646 12.9801 67.6146 14.0601C66.8346 15.0901 66.4546 15.6899 65.9046 16.5999C64.9046 15.6699 63.3146 14.61 62.1846 14.01L63.8646 11.55H63.8746ZM62.2146 26.4299C63.8246 24.3899 65.1546 22.16 66.8346 18.29C67.1646 18.77 67.8946 19.77 68.8746 20.48C68.1746 22.09 66.3846 25.56 64.9746 27.52C65.0246 27.65 65.1546 28.0199 65.1546 28.0999C65.1546 28.2799 65.0846 28.4299 64.9346 28.4299C64.7546 28.4299 64.5846 28.28 64.5046 28.23L62.2146 26.45V26.4299ZM66.1146 5.29004C67.3646 5.89004 69.2246 7.35008 69.7046 7.83008C69.0746 8.56008 68.4746 9.35994 67.9246 10.1899C66.8146 9.15994 65.6646 8.30005 64.3546 7.55005L66.1146 5.29004ZM84.7846 16.5501C85.1346 16.7001 85.2646 16.7499 85.2646 16.8999C85.2646 17.1799 84.9646 17.2 84.4346 17.28C83.6846 18.76 82.5746 20.95 82.1446 21.75L84.5546 21.27C85.0846 22.85 85.7646 26.22 85.8346 27.98C85.0346 28.03 84.2946 28.16 83.2746 28.48C83.2246 27.8 83.1746 27.3 83.0546 26.52C82.2446 26.7 78.7846 27.32 78.0746 27.45C77.8946 27.88 77.7746 28.0801 77.5446 28.0801C77.3146 28.0801 77.2146 27.83 77.1446 27.53L76.3346 24.76C76.7146 24.74 76.8146 24.7399 77.8146 24.6599C78.4146 23.6499 78.4946 23.5299 79.4546 21.8499C79.4046 21.7699 77.9646 19.7599 76.1046 17.8999L76.7346 16.97C76.5846 17.04 76.4546 17.0701 76.1346 17.0701C75.1546 19.1601 74.0446 21.2899 73.8746 21.6199L75.7346 21.3398C76.0346 22.6998 76.6346 27.2999 76.5346 28.4299C75.6846 28.3999 74.8246 28.6099 74.0746 28.8599C74.0946 27.9599 74.0746 27.45 74.0446 27C72.7146 27.25 71.3846 27.4799 68.9946 27.8799C68.7946 28.4299 68.7146 28.5801 68.4646 28.5801C68.3146 28.5801 68.2346 28.4 68.1846 28.23L67.4846 25.04C68.4446 25.04 68.8146 25.04 69.2746 24.99C69.6546 24.36 69.8046 24.06 71.2046 21.47C71.0846 21.29 68.8746 18.68 67.4646 17.45L69.1746 15.1399C69.4246 15.3699 69.5746 15.4899 70.0246 15.9399C70.5546 14.6799 70.8846 13.68 71.2546 12.27H68.5946V9.60986H73.0246C71.7946 7.67986 71.3646 7.17005 71.0346 6.80005L73.5946 5.29004C74.4246 6.35004 75.3746 7.89986 75.8546 8.85986C75.6546 8.97986 74.7446 9.50986 74.5446 9.60986H77.4146C77.9946 8.85986 79.4546 6.61984 80.0246 5.33984L82.7146 6.61987C83.0146 6.76987 83.1646 6.85005 83.1646 7.05005C83.1646 7.40005 82.7646 7.37985 82.3146 7.34985C81.2846 9.00985 81.1546 9.17986 80.8546 9.60986H85.4546V12.27H80.2746L82.3146 13.1299C82.6946 13.2799 82.7946 13.36 82.7946 13.51C82.7946 13.76 82.5946 13.7899 82.0146 13.9399C81.5646 15.1999 80.3846 17.6599 80.0346 18.3599C80.1646 18.5099 80.3146 18.6898 80.8146 19.3398C80.9946 19.0098 81.8146 17.4301 82.4946 15.5701L84.7846 16.5501ZM76.2146 16.3001C76.6646 16.5001 76.7946 16.6 76.8646 16.78L77.6246 15.6499C77.9046 15.8999 78.0546 16.05 78.2746 16.28C78.6246 15.58 79.4246 13.72 79.8246 12.28H72.0546L73.9646 12.96C74.1646 13.03 74.3646 13.1399 74.3646 13.3599C74.3646 13.6399 74.1346 13.69 73.6046 13.74C73.2046 14.79 72.7546 15.9799 71.7746 17.8599C72.0046 18.1599 72.2246 18.4098 72.5746 18.8398C73.5746 16.6498 73.7046 16.4001 74.1346 15.3201L76.1946 16.3001H76.2146ZM73.8546 24.5898C73.7346 23.4798 73.6246 22.8601 73.5246 22.3001C72.9246 23.4301 72.6746 23.86 72.1146 24.76C72.8446 24.69 73.2946 24.6401 73.8446 24.5801L73.8546 24.5898ZM82.5946 24.1099C82.4146 23.4099 82.2146 22.4999 82.0446 21.8999C81.4646 23.0099 81.2646 23.3298 80.6646 24.3398L82.5946 24.1099Z" fill="white"/>
<path d="M100.445 28.1797C100.145 28.1797 95.2446 28.1797 92.4246 25.7197C91.3446 27.3297 90.2646 28.3096 89.6646 28.8596C88.7846 27.9596 88.0846 27.5497 87.2246 27.1997C88.0546 26.5197 89.2646 25.4397 90.4446 23.4797C89.0346 21.3897 88.5546 19.4897 88.2846 18.1497L90.7646 17.5198C91.1446 19.2298 91.4746 20.0097 91.7446 20.6397C92.3446 18.6996 92.4246 17.2998 92.4746 16.5198H90.8146C90.3346 17.1498 90.1646 17.3497 89.9346 17.6497C89.2846 17.0497 88.4746 16.6698 87.2946 16.3198C88.8546 14.3298 89.9346 12.2696 90.9946 9.8396H87.8546V6.91968H94.0146L95.1946 8.34961C93.9646 11.3896 92.7546 13.4798 92.5546 13.7798H95.3946C95.3446 15.2398 95.2446 19.7798 93.6846 23.3298C95.7946 25.3398 97.7846 25.4897 100.995 25.4897C104.035 25.4897 109.135 25.4898 111.525 25.0098C110.645 26.3698 110.445 27.8797 110.415 28.1797H100.435H100.445ZM100.495 16.3696H96.3246V14.2898H100.495V12.8596H94.9646V10.7698H100.495V9.35962H96.3246V7.24976H100.495V5.48975L103.515 5.5896C103.735 5.5896 103.935 5.6897 103.935 5.9397C103.935 6.1697 103.735 6.28965 103.515 6.38965V7.24976H108.845V10.7698H110.825V12.8596H108.845V16.3796H103.515V17.7397H108.995V19.8298H103.515V21.1296H110.305V23.3696H103.515V24.8496H100.495V23.3696H95.2146V21.1296H100.495V19.8298H96.3246V17.7397H100.495V16.3796V16.3696ZM103.515 9.35962V10.7698H105.975V9.35962H103.515ZM103.515 12.8496V14.2798H105.975V12.8496H103.515Z" fill="white"/>
<path d="M122.544 9.63989V11.98H112.664V9.63989H122.544ZM121.784 19.8899V28.21H118.944V27.28H116.354V28.51H113.484V19.8899H121.774H121.784ZM121.204 6.08984V8.5H113.694V6.08984H121.204ZM121.204 13.0999V15.29H113.694V13.0999H121.204ZM121.204 16.52V18.71H113.694V16.52H121.204ZM116.354 22.25V24.6899H118.944V22.25H116.354ZM125.904 19.1099H122.884V16.45H133.714L134.794 17.73C134.014 19.61 133.034 21.5698 131.174 23.8398C133.964 25.5698 135.594 25.9301 136.404 26.0801C135.544 26.9301 135.044 27.6401 134.594 28.5701C132.084 27.7701 130.104 26.6399 129.014 25.9099C127.254 27.2699 125.724 28.07 123.784 28.77C123.334 27.87 122.274 26.61 121.804 26.23C122.484 26.05 124.564 25.58 126.784 23.99C124.944 22.05 124.344 20.8701 124.074 20.3201L125.904 19.1099ZM132.364 6.11987V12.03C132.364 12.31 132.514 12.53 132.814 12.53H133.314C134.064 12.53 134.174 11.1001 134.244 10.3201C135.354 11.1701 136.124 11.37 136.534 11.48C136.034 14.17 135.534 15.1699 134.024 15.1699H131.634C129.774 15.1699 129.474 13.71 129.474 12.78V8.70996H127.134C127.034 11.3 126.934 13.84 124.694 16.22C124.144 15.72 123.114 14.99 122.024 14.71C124.114 12.95 124.114 10.5101 124.114 8.83008V6.11987H132.354H132.364ZM126.564 19.1099C127.314 20.4199 128.174 21.3501 128.954 22.0801C129.654 21.3001 130.384 20.3699 130.964 19.1099H126.564Z" fill="white"/>
<path d="M155.745 28.6396H152.855V21.1196C150.845 24.6896 148.685 26.5997 148.235 26.9497C147.355 26.0997 146.725 25.6898 145.745 25.2698C150.345 21.5998 151.925 18.1298 152.075 17.7498H147.805V15.1096H152.855V12.4197H149.935C149.185 13.9497 149.105 14.1296 148.805 14.6296C147.775 13.7796 146.545 13.6198 146.185 13.5798C146.465 13.1998 146.565 13.0796 146.685 12.8696H144.275V13.4497C145.355 15.9397 147.045 17.4196 147.815 18.0996C147.165 18.5996 146.705 19.3996 146.185 20.3896C145.355 19.6096 144.905 18.9598 144.275 17.9998V28.6296H141.535V19.3796C140.835 21.1096 140.205 22.4197 139.225 23.8997C138.495 22.0397 137.695 21.4897 137.295 21.2097C139.685 18.4497 141.035 14.2496 141.415 12.8696H138.075V10.1296H141.545V5.57983L144.235 5.65967C144.515 5.65967 144.815 5.78977 144.815 6.00977C144.815 6.18977 144.715 6.25977 144.285 6.50977V10.1296H146.825V12.6897C148.435 10.2297 148.915 8.16979 149.115 6.77979L151.605 7.48975C151.935 7.58975 152.065 7.60979 152.065 7.78979C152.065 7.96979 151.815 8.08968 151.565 8.16968C151.465 8.56968 151.385 8.8498 151.065 9.7998H152.875V5.52979L155.815 5.62964C156.195 5.64964 156.345 5.69969 156.345 5.92969C156.345 6.15969 156.275 6.20967 155.765 6.40967V9.7998H160.645V12.4197H155.765V15.1096H161.095V17.7498H156.575C157.475 19.5898 159.115 22.1497 162.075 24.1597C161.345 24.7897 160.795 25.4197 160.195 26.6997C158.835 25.6497 157.125 23.6598 155.775 21.0498V28.6396H155.745Z" fill="white"/>
<path d="M171.005 24.3599C172.835 24.0599 174.495 23.6799 175.855 23.3599C175.575 24.2199 175.505 25.3699 175.525 26.1299C171.805 27.1099 168.515 27.6599 164.565 28.1699C164.465 28.4499 164.345 28.8 164.035 28.8C163.815 28.8 163.685 28.4999 163.655 28.3499L163.005 25.4099C165.495 25.1799 166.775 25.0099 167.675 24.8799V19.0999H163.635V16.3398H174.715V19.0999H170.995V24.3799L171.005 24.3599ZM180.555 5.45996C181.385 5.93996 183.015 6.91998 184.505 8.22998C184.175 8.55998 183.445 9.59004 182.975 10.29H186.145V13.23H177.675C177.895 14.66 178.675 19.3398 181.725 23.5898C181.895 23.8398 182.505 24.7 182.935 24.7C183.365 24.7 183.585 24.0199 183.765 23.4399C183.865 23.1599 184.165 21.8799 184.245 21.6299C184.675 22.1099 185.655 23.0899 186.785 23.6399C186.135 26.6099 185.155 28.3899 183.385 28.3899C180.275 28.3899 176.225 22.28 174.745 13.24H163.185V10.3H174.335C174.265 9.75005 173.985 7.31008 174.015 5.58008L177.335 5.81006C177.485 5.81006 177.815 5.87989 177.815 6.13989C177.815 6.46989 177.435 6.61997 177.185 6.71997C177.165 7.41997 177.135 8.48006 177.305 10.3101H182.205C181.505 9.63006 180.445 8.7299 178.815 7.6499L180.575 5.48999L180.555 5.45996Z" fill="white"/>
<path d="M206.234 16.2197H193.474V14.0098C192.044 14.9198 190.854 15.4698 190.204 15.7698C190.024 15.4898 189.154 14.2398 187.864 13.2598C191.404 12.1298 196.584 8.48973 198.314 5.21973L201.954 5.74976C202.184 5.77976 202.334 5.92983 202.334 6.07983C202.334 6.30983 202.054 6.37972 201.754 6.45972C203.214 8.59972 208.184 11.8097 211.954 12.9197C210.904 13.5997 209.944 15.4298 209.874 15.5598C208.294 14.9298 206.934 14.1498 206.224 13.7498V16.2397L206.234 16.2197ZM189.604 24.9697C190.404 24.9197 193.144 24.7498 193.474 24.7498C194.704 22.6098 195.404 20.8997 195.564 20.4797H189.604V17.6897H210.334V20.4797H204.434C207.454 23.0997 208.804 24.8797 210.184 26.7097C209.004 27.5097 208.204 28.4197 207.744 28.9197C206.584 27.1397 206.464 26.9598 205.914 26.2798C204.384 26.4998 200.784 26.9596 199.174 27.1296C197.914 27.2796 192.284 27.8597 191.154 27.9897C191.004 28.3697 190.874 28.6396 190.574 28.6396C190.424 28.6396 190.294 28.4898 190.224 28.0598L189.594 24.9697H189.604ZM205.734 13.4397C202.914 11.7297 201.744 10.5496 199.774 8.60962C197.814 10.5996 196.654 11.7797 194.324 13.4397H205.734ZM203.524 20.4797H199.624C199.674 20.5597 199.694 20.5997 199.694 20.6597C199.694 20.9397 199.164 21.0098 198.964 21.0398C198.584 21.8998 197.554 23.6997 197.084 24.4797C200.254 24.1997 200.604 24.1796 203.714 23.8496C203.284 23.3696 202.704 22.8698 201.704 22.0198L203.514 20.4897L203.524 20.4797Z" fill="white"/>
<path d="M220.245 28.5396H217.125V21.2996C216.095 22.2296 215.265 22.8594 214.635 23.3394C214.005 21.8794 213.075 21.1295 212.645 20.7495C215.335 19.1695 218.725 15.9195 219.805 13.4395H213.645V10.5496H217.115V5.69946L220.205 5.79956C220.555 5.79956 220.685 6.01941 220.685 6.14941C220.685 6.29941 220.565 6.39959 220.235 6.57959V10.5496H222.825L224.205 11.8594C222.775 14.7194 222.495 15.1994 221.435 16.6094C222.795 18.1394 224.525 19.2695 225.275 19.7795C224.645 20.3095 223.715 21.3394 223.315 22.1194C221.835 21.0694 221.125 20.3594 220.225 19.4094V28.5596L220.245 28.5396ZM223.785 16.0796V13.0396H228.205V5.64941L231.595 5.79956C231.795 5.79956 231.975 5.89959 231.975 6.07959C231.975 6.32959 231.795 6.37949 231.445 6.47949V13.0396H235.895V16.0796H231.445V24.8296H236.445V27.7195H222.195V24.8296H228.205V16.0796H223.785Z" fill="white"/>
<path d="M0.304688 17.0598C0.304688 25.9098 7.51469 33.1296 16.3847 33.1296C25.2547 33.1296 32.4547 25.9098 32.4547 17.0598C32.4547 8.20981 25.2447 0.969727 16.3847 0.969727C7.52469 0.969727 0.304688 8.18981 0.304688 17.0598ZM2.53469 17.0598C2.53469 9.40981 8.74469 3.19971 16.3847 3.19971C24.0247 3.19971 30.2347 9.40981 30.2347 17.0598C30.2347 24.7098 24.0147 30.9097 16.3847 30.9097C8.75469 30.9097 2.53469 24.6898 2.53469 17.0598Z" fill="white"/>
<path d="M26.3142 8.39966C26.3142 8.39966 26.4042 8.30979 26.4242 8.27979H6.74422L9.33421 11.3198H19.4642L16.3642 14.7397L13.8842 11.9797H9.86422L14.2342 17.0896L6.32422 25.8098H10.9242C12.9642 23.4898 14.7842 21.4296 16.3942 19.6096L21.6942 25.8098H26.2942L18.5442 17.1697C23.8942 11.1097 26.2242 8.47974 26.2242 8.47974L26.3042 8.39966H26.3142Z" fill="white"/>
<path d="M20.9043 25.8301H11.8643L14.3543 22.96H18.4343L20.9043 25.8301Z" fill="white"/>
</svg>
