<svg width="327" height="38" viewBox="0 0 327 38" fill="none" xmlns="http://www.w3.org/2000/svg">
<path d="M47.7821 8.25L51.0021 8.43C51.1321 8.43 51.5021 8.45 51.5021 8.71C51.5021 8.97 51.2021 9.06 50.8721 9.14V10.57H60.7222V13.28H37.8721V10.57H47.7721V8.26L47.7821 8.25ZM46.1021 24.26C46.3021 24.39 46.4821 24.49 46.4821 24.69C46.4821 24.97 46.0621 24.97 45.8021 24.94C45.3021 25.77 43.6921 28.38 40.8521 30.69C39.6921 29.76 39.2722 29.41 38.0822 28.91C40.4222 27 42.0321 25.24 43.3821 22.75L46.0922 24.26H46.1021ZM50.8821 28.46C50.8821 30.54 50.4321 31.42 46.0621 31.27C45.9621 30.32 45.4821 29.06 44.9021 28.08C45.8121 28.21 46.3321 28.26 46.7821 28.26C47.6121 28.26 47.7821 27.98 47.7821 27.41V22.28H40.8721V14.64H57.7421V22.28H50.8821V28.46ZM43.9722 17.17V19.73H54.7021V17.17H43.9722ZM55.0021 22.9C56.5321 24.18 58.7221 26.52 59.9821 28.63C58.6721 29.46 58.5222 29.56 57.2222 30.64C56.1922 28.7 54.3021 26.12 52.4421 24.51L55.0021 22.9Z" fill="black"/>
<path d="M64.1418 14.23C64.8518 14.61 66.6318 15.66 67.8918 16.74C67.1118 17.77 66.7319 18.37 66.1819 19.28C65.1819 18.35 63.5919 17.29 62.4619 16.69L64.1418 14.23ZM62.4818 29.11C64.0918 27.08 65.4218 24.84 67.1018 20.97C67.4318 21.45 68.1618 22.45 69.1418 23.16C68.4418 24.77 66.6518 28.24 65.2518 30.2C65.3018 30.33 65.4319 30.7 65.4319 30.78C65.4319 30.96 65.3519 31.11 65.2019 31.11C65.0219 31.11 64.8519 30.96 64.7719 30.91L62.4818 29.13V29.11ZM66.3718 7.96997C67.6318 8.56997 69.4919 10.03 69.9619 10.51C69.3319 11.24 68.7319 12.04 68.1819 12.87C67.0719 11.84 65.9218 10.98 64.6118 10.23L66.3718 7.96997ZM85.0419 19.23C85.3919 19.38 85.5219 19.43 85.5219 19.58C85.5219 19.86 85.2219 19.88 84.6919 19.96C83.9419 21.44 82.8319 23.63 82.4019 24.43L84.8119 23.95C85.3419 25.53 86.0219 28.9 86.0919 30.66C85.2919 30.71 84.5519 30.84 83.5319 31.16C83.4819 30.48 83.4319 29.98 83.3119 29.2C82.5019 29.38 79.0419 30 78.3319 30.13C78.1619 30.56 78.0319 30.76 77.8019 30.76C77.5719 30.76 77.4719 30.51 77.4019 30.21L76.5919 27.44C76.9719 27.42 77.0719 27.42 78.0719 27.34C78.6719 26.33 78.7519 26.21 79.7119 24.53C79.6619 24.45 78.2218 22.44 76.3718 20.58L77.0018 19.65C76.8518 19.72 76.7219 19.75 76.4019 19.75C75.4219 21.84 74.3118 23.97 74.1418 24.3L76.0018 24.02C76.3018 25.38 76.9119 29.98 76.8019 31.11C75.9519 31.08 75.0919 31.29 74.3419 31.54C74.3619 30.64 74.3419 30.13 74.3119 29.68C72.9819 29.93 71.6518 30.16 69.2618 30.56C69.0618 31.11 68.9818 31.26 68.7318 31.26C68.5818 31.26 68.5019 31.08 68.4519 30.91L67.7518 27.72C68.7118 27.72 69.0819 27.72 69.5319 27.67C69.9119 27.04 70.0619 26.74 71.4619 24.15C71.3419 23.97 69.1219 21.36 67.7219 20.13L69.4319 17.82C69.6819 18.05 69.8319 18.17 70.2819 18.62C70.8119 17.36 71.1418 16.36 71.5118 14.95H68.8518V12.29H73.2819C72.0519 10.36 71.6219 9.84997 71.2919 9.47997L73.8518 7.96997C74.6818 9.02997 75.6318 10.58 76.1118 11.54C75.9118 11.66 75.0019 12.19 74.8119 12.29H77.6719C78.2519 11.54 79.7119 9.29997 80.2819 8.01997L82.9719 9.29997C83.2719 9.44997 83.4219 9.52997 83.4219 9.72997C83.4219 10.08 83.0219 10.06 82.5719 10.03C81.5419 11.69 81.4118 11.86 81.1118 12.29H85.7119V14.95H80.5319L82.5719 15.81C82.9519 15.96 83.0519 16.04 83.0519 16.19C83.0519 16.44 82.8519 16.47 82.2719 16.62C81.8218 17.88 80.6419 20.34 80.2919 21.04C80.4119 21.19 80.5719 21.37 81.0719 22.02C81.2519 21.69 82.0718 20.11 82.7518 18.25L85.0419 19.23ZM76.4719 18.98C76.9219 19.18 77.0518 19.28 77.1218 19.46L77.8818 18.33C78.1618 18.58 78.3119 18.73 78.5319 18.96C78.8819 18.26 79.6819 16.4 80.0919 14.96H72.3219L74.2318 15.64C74.4318 15.71 74.6318 15.82 74.6318 16.04C74.6318 16.32 74.4018 16.37 73.8718 16.42C73.4718 17.48 73.0219 18.66 72.0419 20.54C72.2719 20.84 72.4919 21.09 72.8419 21.52C73.8519 19.33 73.9719 19.08 74.4019 18L76.4619 18.98H76.4719ZM74.1118 27.27C73.9918 26.16 73.8819 25.54 73.7819 24.98C73.1819 26.11 72.9318 26.54 72.3718 27.44C73.1018 27.36 73.5518 27.32 74.1018 27.26L74.1118 27.27ZM82.8518 26.79C82.6718 26.09 82.4819 25.18 82.3019 24.58C81.7219 25.69 81.5219 26.01 80.9219 27.02L82.8518 26.79Z" fill="black"/>
<path d="M100.711 30.8599C100.411 30.8599 95.5113 30.8599 92.6913 28.3999C91.6113 30.0099 90.5313 30.9899 89.9313 31.5399C89.0513 30.6399 88.3512 30.2299 87.4912 29.8799C88.3212 29.1999 89.5313 28.1199 90.7113 26.1599C89.3013 24.0799 88.8213 22.1699 88.5513 20.8299L91.0413 20.1999C91.4213 21.9099 91.7412 22.6899 92.0212 23.3199C92.6212 21.3799 92.7012 19.9799 92.7512 19.1999H91.0913C90.6113 19.8299 90.4413 20.0299 90.2113 20.3299C89.5613 19.7299 88.7513 19.3499 87.5713 18.9999C89.1313 17.0099 90.2112 14.9499 91.2712 12.5199H88.1312V9.59991H94.2913L95.4713 11.0299C94.2313 14.0699 93.0313 16.1599 92.8313 16.4599H95.6713C95.6213 17.9199 95.5213 22.4599 93.9613 26.0099C96.0713 28.0199 98.0612 28.1699 101.271 28.1699C104.311 28.1699 109.411 28.1699 111.801 27.6899C110.921 29.0499 110.721 30.5599 110.691 30.8599H100.711ZM100.761 19.0499H96.5913V16.9599H100.761V15.5299H95.2312V13.4399H100.761V12.0299H96.5913V9.91991H100.761V8.15991L103.781 8.25991C104.001 8.25991 104.201 8.35991 104.201 8.60991C104.201 8.83991 104.001 8.95991 103.781 9.05991V9.91991H109.111V13.4399H111.101V15.5299H109.111V19.0499H103.781V20.4099H109.261V22.4999H103.781V23.7999H110.571V26.0399H103.781V27.5199H100.761V26.0399H95.4812V23.7999H100.761V22.4999H96.5913V20.4099H100.761V19.0499ZM103.781 12.0399V13.4499H106.241V12.0399H103.781ZM103.781 15.5299V16.9599H106.241V15.5299H103.781Z" fill="black"/>
<path d="M122.811 12.32V14.66H112.931V12.32H122.811ZM122.061 22.57V30.89H119.221V29.96H116.631V31.19H113.761V22.57H122.051H122.061ZM121.481 8.77002V11.18H113.971V8.77002H121.481ZM121.481 15.78V17.97H113.971V15.78H121.481ZM121.481 19.2V21.39H113.971V19.2H121.481ZM116.631 24.93V27.37H119.221V24.93H116.631ZM126.181 21.79H123.161V19.13H133.991L135.071 20.41C134.291 22.29 133.311 24.25 131.451 26.52C134.241 28.25 135.871 28.61 136.681 28.76C135.831 29.61 135.321 30.32 134.871 31.25C132.361 30.45 130.371 29.32 129.291 28.59C127.531 29.95 126.001 30.75 124.061 31.45C123.611 30.55 122.561 29.29 122.081 28.91C122.761 28.73 124.841 28.26 127.061 26.67C125.231 24.73 124.621 23.55 124.351 23L126.181 21.79ZM132.641 8.80002V14.71C132.641 14.99 132.791 15.21 133.091 15.21H133.591C134.341 15.21 134.451 13.78 134.521 13C135.631 13.85 136.401 14.05 136.811 14.16C136.311 16.85 135.811 17.85 134.301 17.85H131.911C130.051 17.85 129.751 16.39 129.751 15.46V11.39H127.411C127.311 13.98 127.211 16.52 124.971 18.9C124.421 18.4 123.391 17.67 122.311 17.39C124.401 15.63 124.401 13.19 124.401 11.51V8.80002H132.641ZM126.841 21.79C127.591 23.1 128.451 24.03 129.231 24.76C129.931 23.98 130.661 23.05 131.241 21.79H126.841Z" fill="black"/>
<path d="M156.01 31.32H153.12V23.8C151.11 27.37 148.95 29.28 148.5 29.63C147.62 28.78 146.99 28.37 146.01 27.95C150.61 24.28 152.191 20.81 152.341 20.43H148.071V17.79H153.12V15.1H150.201C149.451 16.63 149.371 16.81 149.071 17.31C148.041 16.46 146.811 16.3 146.451 16.25C146.731 15.87 146.831 15.75 146.951 15.55H144.541V16.13C145.621 18.62 147.311 20.1 148.091 20.78C147.441 21.28 146.991 22.09 146.461 23.07C145.631 22.29 145.181 21.64 144.551 20.68V31.31H141.811V22.06C141.111 23.79 140.48 25.1 139.5 26.58C138.77 24.72 137.971 24.17 137.561 23.89C139.951 21.13 141.311 16.93 141.681 15.55H138.341V12.81H141.811V8.25995L144.5 8.33995C144.78 8.33995 145.081 8.46995 145.081 8.68995C145.081 8.86995 144.981 8.93995 144.551 9.18995V12.81H147.091V15.37C148.701 12.91 149.18 10.85 149.38 9.45995L151.87 10.16C152.2 10.26 152.321 10.28 152.321 10.46C152.321 10.64 152.071 10.76 151.821 10.84C151.721 11.24 151.641 11.52 151.321 12.47H153.13V8.19995L156.071 8.29995C156.451 8.31995 156.6 8.36995 156.6 8.59995C156.6 8.82995 156.521 8.87995 156.021 9.07995V12.47H160.891V15.08H156.021V17.77H161.35V20.41H156.831C157.741 22.25 159.371 24.8099 162.331 26.82C161.601 27.4499 161.051 28.08 160.451 29.36C159.091 28.31 157.381 26.32 156.031 23.71V31.2999L156.01 31.32Z" fill="black"/>
<path d="M171.27 27.0399C173.11 26.7399 174.76 26.3599 176.12 26.0399C175.84 26.8999 175.77 28.0499 175.79 28.8099C172.07 29.7899 168.78 30.3399 164.83 30.8499C164.73 31.1299 164.61 31.4799 164.3 31.4799C164.07 31.4799 163.95 31.1799 163.92 31.0299L163.26 28.0899C165.75 27.8599 167.03 27.6899 167.93 27.5599V21.7799H163.89V19.0199H174.97V21.7799H171.25V27.0599L171.27 27.0399ZM180.82 8.13989C181.65 8.61989 183.28 9.59989 184.77 10.8999C184.44 11.2299 183.71 12.2599 183.23 12.9599H186.4V15.8999H177.93C178.16 17.3299 178.93 22.0099 181.98 26.2499C182.16 26.4999 182.76 27.3599 183.19 27.3599C183.62 27.3599 183.84 26.6799 184.02 26.0999C184.12 25.8199 184.42 24.5399 184.5 24.2899C184.93 24.7699 185.91 25.7499 187.04 26.2999C186.39 29.2699 185.41 31.0499 183.64 31.0499C180.53 31.0499 176.48 24.9399 175 15.8999H163.44V12.9599H174.6C174.53 12.4099 174.25 9.96989 174.27 8.23989L177.59 8.46989C177.74 8.46989 178.07 8.53989 178.07 8.79989C178.07 9.12989 177.69 9.27989 177.44 9.37989C177.42 10.0799 177.39 11.1399 177.56 12.9699H182.46C181.76 12.2899 180.7 11.3899 179.07 10.3099L180.83 8.14989L180.82 8.13989Z" fill="black"/>
<path d="M206.5 18.8999H193.74V16.6899C192.31 17.5999 191.12 18.1499 190.47 18.4499C190.29 18.1699 189.42 16.9199 188.13 15.9399C191.67 14.8099 196.85 11.1699 198.58 7.8999L202.22 8.4299C202.45 8.4499 202.6 8.6099 202.6 8.7599C202.6 8.9899 202.32 9.0599 202.02 9.1399C203.48 11.2799 208.45 14.4899 212.22 15.5999C211.17 16.2799 210.21 18.1099 210.14 18.2399C208.56 17.6099 207.2 16.8299 206.49 16.4299V18.9199L206.5 18.8999ZM189.86 27.6499C190.66 27.5999 193.4 27.4199 193.73 27.4199C194.96 25.2799 195.66 23.5699 195.82 23.1499H189.86V20.3599H210.59V23.1499H204.68C207.7 25.7599 209.05 27.5499 210.44 29.3799C209.26 30.1799 208.45 31.0899 208 31.5899C206.84 29.8099 206.72 29.6299 206.17 28.9499C204.63 29.1799 201.04 29.6299 199.43 29.7999C198.17 29.9499 192.54 30.5299 191.41 30.6499C191.26 31.0299 191.13 31.2999 190.83 31.2999C190.68 31.2999 190.55 31.1499 190.48 30.7199L189.85 27.6299L189.86 27.6499ZM205.99 16.1199C203.17 14.4099 202 13.2299 200.03 11.2899C198.07 13.2799 196.91 14.4599 194.58 16.1199H205.99ZM203.78 23.1599H199.88C199.93 23.2399 199.96 23.2799 199.96 23.3399C199.96 23.6199 199.43 23.6899 199.23 23.7199C198.85 24.5799 197.82 26.3899 197.35 27.1599C200.52 26.8799 200.87 26.8599 203.98 26.5299C203.55 26.0499 202.98 25.5499 201.97 24.6999L203.78 23.1699V23.1599Z" fill="black"/>
<path d="M220.509 31.2198H217.389V23.9798C216.359 24.9098 215.529 25.5398 214.899 26.0198C214.269 24.5598 213.339 23.8098 212.909 23.4298C215.599 21.8498 218.989 18.5998 220.069 16.1198H213.909V13.2298H217.379V8.37983L220.469 8.47982C220.819 8.47982 220.949 8.70983 220.949 8.82983C220.949 8.97983 220.829 9.07983 220.499 9.25983V13.2298H223.089L224.469 14.5398C223.039 17.3998 222.759 17.8798 221.699 19.2898C223.059 20.8198 224.789 21.9498 225.549 22.4598C224.919 22.9898 223.989 24.0198 223.589 24.7998C222.109 23.7498 221.399 23.0398 220.499 22.0898V31.2398L220.509 31.2198ZM224.049 18.7498V15.7098H228.469V8.31982L231.859 8.46983C232.059 8.46983 232.239 8.56983 232.239 8.73983C232.239 8.98983 232.059 9.03983 231.709 9.13983V15.6998H236.159V18.7398H231.709V27.4898H236.709V30.3798H222.459V27.4898H228.469V18.7398H224.049V18.7498Z" fill="black"/>
<path d="M30.8329 19.7298C30.8329 27.5698 24.4828 33.9198 16.6528 33.9198C8.82283 33.9198 2.46289 27.5698 2.46289 19.7298C2.46289 11.8898 8.81283 5.53979 16.6528 5.53979C24.4928 5.53979 30.8329 11.8898 30.8329 19.7298Z" fill="white"/>
<path d="M0.573242 19.7399C0.573242 28.5899 7.7832 35.8099 16.6532 35.8099C25.5232 35.8099 32.7233 28.5899 32.7233 19.7399C32.7233 10.8899 25.5132 3.6499 16.6532 3.6499C7.7932 3.6499 0.573242 10.8699 0.573242 19.7399ZM2.80322 19.7399C2.80322 12.0899 9.0232 5.8799 16.6532 5.8799C24.2832 5.8799 30.5032 12.0899 30.5032 19.7399C30.5032 27.3899 24.2832 33.5799 16.6532 33.5799C9.0232 33.5799 2.80322 27.3599 2.80322 19.7399Z" fill="black"/>
<path d="M26.5934 11.08C26.5934 11.08 26.6734 10.99 26.7034 10.96H7.02332L9.61328 14H19.7533L16.6533 17.42L14.1733 14.66H10.1533L14.5233 19.77L6.61328 28.49H11.2134C13.2534 26.17 15.0733 24.11 16.6833 22.29L21.9833 28.49H26.5834L18.8334 19.85C24.1834 13.79 26.5133 11.16 26.5133 11.16L26.6033 11.08H26.5934Z" fill="#C7161E"/>
<path d="M21.1729 28.5099H12.1328L14.6228 25.6399H18.7029L21.1729 28.5099Z" fill="#C7161E"/>
<path d="M267.833 0.576741L249.413 18.9971L267.833 37.4174L286.253 18.997L267.833 0.576741Z" fill="#222222"/>
<path d="M308.007 0.582199L289.587 19.0024L308.007 37.4227L326.427 19.0025L308.007 0.582199Z" fill="#222222"/>
<path d="M315.768 13.5198H300.188C299.998 13.5198 299.848 13.6698 299.848 13.8598V24.0798C299.848 24.2698 299.998 24.4198 300.188 24.4198H315.768C315.958 24.4198 316.108 24.2698 316.108 24.0798V13.8598C316.108 13.6698 315.958 13.5198 315.768 13.5198ZM307.978 19.7998L301.138 14.1998H314.818L307.978 19.7998ZM300.528 14.5798L305.888 18.9698L306.428 19.4098L307.758 20.4998C307.818 20.5498 307.898 20.5798 307.978 20.5798C308.058 20.5798 308.128 20.5598 308.188 20.4998L309.518 19.4098L310.058 18.9698L315.428 14.5798V23.7398H300.518V14.5798H300.528Z" fill="white" stroke="white"/>
<path d="M262.379 13.7298C262.339 14.9098 262.529 17.2498 264.429 20.4398C266.339 23.6398 268.299 24.9198 269.359 25.4398C270.409 25.9598 271.769 25.8298 272.499 25.3498C273.229 24.8698 273.269 24.5798 273.209 24.2098C273.159 23.8598 272.919 23.3298 272.019 22.5198C271.219 21.7898 270.829 21.6898 270.529 21.5798C270.229 21.4698 269.589 21.4298 269.409 21.8698C269.279 22.1698 269.129 22.5098 268.889 22.5798C268.609 22.6598 268.269 22.4698 267.979 22.1798C267.409 21.6098 266.529 20.3098 266.049 19.4898C265.559 18.6698 264.839 17.2898 264.609 16.5098C264.489 16.1198 264.489 15.7298 264.689 15.5198C264.869 15.3398 265.229 15.3698 265.559 15.3998C266.029 15.4398 266.299 14.8598 266.349 14.5498C266.389 14.2298 266.489 13.8398 266.229 12.7898C265.939 11.6098 265.589 11.1498 265.309 10.9298C265.019 10.6998 264.739 10.5998 263.969 11.0098C263.199 11.4198 262.429 12.5498 262.389 13.7298H262.379Z" fill="white"/>
</svg>
